<svg width="16" height="16" viewBox="0 0 16 16" fill="none" xmlns="http://www.w3.org/2000/svg">
<path d="M10.2078 7.35223C10.0964 7.35178 9.98614 7.3746 9.88407 7.41923C9.782 7.46385 9.69038 7.52931 9.61507 7.6114C9.53976 7.69349 9.48242 7.7904 9.44673 7.89593C9.41104 8.00146 9.39778 8.11328 9.40781 8.22423H11.0558C11.0665 8.10912 11.052 7.99307 11.0135 7.88407C10.975 7.77507 10.9133 7.67571 10.8327 7.59284C10.7521 7.50996 10.6545 7.44554 10.5467 7.404C10.4388 7.36247 10.3232 7.3448 10.2078 7.35223ZM5.99181 8.24023H5.00781V9.79223H5.80781C6.60781 9.79223 6.95981 9.52823 6.95981 8.99223C6.95981 8.45623 6.59181 8.24023 5.99181 8.24023V8.24023ZM6.68781 6.81623C6.68781 6.39223 6.40781 6.13623 5.92781 6.13623H5.00781V7.52823H5.68781C6.39981 7.52823 6.68781 7.27223 6.68781 6.81623Z" fill="white"/>
<path d="M8 0C6.41775 0 4.87103 0.469192 3.55544 1.34824C2.23985 2.22729 1.21447 3.47672 0.608967 4.93853C0.00346627 6.40034 -0.15496 8.00887 0.153721 9.56072C0.462403 11.1126 1.22433 12.538 2.34315 13.6569C3.46197 14.7757 4.88743 15.5376 6.43928 15.8463C7.99113 16.155 9.59966 15.9965 11.0615 15.391C12.5233 14.7855 13.7727 13.7602 14.6518 12.4446C15.5308 11.129 16 9.58225 16 8C16 6.94942 15.7931 5.90914 15.391 4.93853C14.989 3.96793 14.3997 3.08601 13.6569 2.34315C12.914 1.60028 12.0321 1.011 11.0615 0.608964C10.0909 0.206926 9.05058 0 8 0V0ZM6.16 10.56H4V5.36H6.16C7.096 5.36 7.712 5.848 7.712 6.64C7.72304 6.90607 7.63891 7.16738 7.47471 7.37703C7.31051 7.58668 7.07697 7.73097 6.816 7.784C6.98139 7.78783 7.14426 7.82537 7.29463 7.89432C7.44501 7.96327 7.57974 8.06218 7.69057 8.185C7.80141 8.30781 7.88601 8.45195 7.93922 8.60859C7.99242 8.76524 8.01311 8.93109 8 9.096C8 10.024 7.2 10.56 6.16 10.56ZM9 5.76H11.4V6.16H9V5.76ZM12 8.84H9.36V8.952C9.34624 9.07356 9.3587 9.19667 9.39654 9.31301C9.43438 9.42935 9.49671 9.53623 9.57935 9.62645C9.66198 9.71666 9.76299 9.78812 9.87558 9.83599C9.98816 9.88387 10.1097 9.90706 10.232 9.904C10.4037 9.93068 10.5793 9.89435 10.7263 9.80172C10.8734 9.70909 10.9819 9.56641 11.032 9.4H12C11.9138 9.78402 11.6891 10.1228 11.3688 10.3516C11.0486 10.5803 10.6552 10.683 10.264 10.64C10.014 10.6652 9.76143 10.6354 9.52417 10.5526C9.28691 10.4697 9.07069 10.3359 8.89072 10.1605C8.71074 9.98509 8.57139 9.77238 8.48246 9.53733C8.39354 9.30228 8.3572 9.0506 8.376 8.8V8.448C8.35901 8.20518 8.39474 7.96155 8.48073 7.73383C8.56673 7.50611 8.70096 7.29968 8.87422 7.1287C9.04748 6.95772 9.25567 6.82624 9.48451 6.74326C9.71335 6.66029 9.95742 6.62779 10.2 6.648C10.4418 6.6325 10.6841 6.66898 10.9106 6.75498C11.1371 6.84099 11.3425 6.97452 11.513 7.14659C11.6836 7.31866 11.8153 7.52527 11.8993 7.75252C11.9833 7.97976 12.0176 8.22237 12 8.464V8.84Z" fill="white"/>
</svg>
