<svg width="107" height="107" viewBox="0 0 107 107" fill="none" xmlns="http://www.w3.org/2000/svg">
    <path d="M73.4273 52.0369C71.1442 55.0202 68.994 56.8694 65.3149 58.9935C58.2266 63.0859 50.315 63.0631 42.979 67.9736C34.3007 73.7941 38.4261 76.3404 39.8747 74.874C42.8102 71.8515 43.6091 71.0527 45.7615 69.675C54.6243 64.0181 60.719 65.3372 68.7282 60.1505C71.4349 58.4078 74.2965 55.6082 75.8222 53.5347C78.2992 50.1469 75.6117 49.1556 73.4273 52.0369Z" fill="white"/>
    <path d="M30.5074 56.2721C34.0492 50.9868 36.1023 49.554 42.6836 47.7795C55.5781 44.2727 57.5178 43.423 61.532 39.4627C63.4524 37.5664 66.1195 33.4163 65.7882 32.8424C65.0574 31.5767 63.306 32.3627 62.0394 34.5341C57.3376 42.6043 49.6766 43.9897 44.8383 45.2754C40.4128 46.4578 34.7448 47.5925 31.6151 50.4345C28.0954 53.6143 25.777 57.9006 27.1991 58.6098C28.3425 59.1872 28.7618 58.9 30.5074 56.2721Z" fill="white"/>
    <path d="M73.254 33.7301C71.4127 37.6734 70.1046 39.7338 68.1173 41.8262C62.6487 47.5938 56.3739 51.4192 48.2366 53.8896C40.3408 56.3105 35.6452 59.2465 31.5151 64.3313C28.2313 68.3874 27.2673 70.6542 28.8002 70.7368C29.4916 70.7652 29.4507 70.8112 33.6477 66.1152C38.9247 60.2107 42.4097 57.9062 49.74 55.5192C58.9796 52.5025 65.5439 48.5551 70.723 42.9096C73.6889 39.6671 76.869 34.0282 76.3467 32.8896C75.7828 31.64 74.0033 32.1048 73.254 33.7301Z" fill="white"/>
</svg>