<svg width="146" height="47" viewBox="0 0 146 47" fill="none" xmlns="http://www.w3.org/2000/svg">
    <path fill-rule="evenodd" clip-rule="evenodd" d="M2.45753 33.8862C-1.74138 26.3864 -0.16368 18.4498 6.89922 11.3869C11.0739 7.21227 17.5057 2.86771 21.4376 1.16873C26.7287 -1.11275 26.1704 4.10559 24.3016 5.10071C20.7094 6.99386 11.8504 18.6197 11.2436 22.1876C10.7825 24.8817 15.4669 26.0709 22.4812 26.4835C52.4561 28.1582 98.1829 20.4885 118.522 18.2556C118.522 18.2556 118.304 11.4354 118.255 10.3675C118.037 6.55691 118.813 5.68318 120.925 7.35789C122.454 8.54717 138.255 17.8915 141.24 19.3235C146.652 21.9691 146.895 24.1049 142.332 28.6679C137.526 33.425 129.25 41.2161 125.342 44.6869C121.119 48.4732 119.032 44.0073 118.643 39.0074C118.522 37.3813 118.328 36.0222 118.231 35.9737C116.58 35.2455 107.746 37.9152 47.2378 43.716C18.0396 46.4586 8.33115 44.3713 2.45753 33.8862ZM11.0495 36.459C16.826 39.4686 31.5587 39.6385 55.0774 36.993C70.0042 35.3183 90.4647 33.692 100.756 31.9445C105.319 31.1678 113.741 30.3184 118.085 30.1485C119.978 30.0514 125.779 30.0757 124.76 32.3087C124.566 32.7456 124.444 34.226 124.444 35.6338C124.517 38.6677 124.59 38.6434 127.842 35.4881C129.08 34.2988 132.235 31.4349 134.881 29.0806C140.706 23.9351 140.755 24.9059 134.42 21.1438C126.871 16.7022 122.139 13.4741 121.605 13.4741C121.095 13.4499 121.41 17.4547 122.066 19.4692C123.401 23.5224 123.546 23.4254 112.284 24.8817C107.843 25.4399 102.892 26.168 101.314 26.435C79.4214 30.3669 63.4267 30.8281 58.0628 31.2407C46.0243 32.1144 28.4035 32.8426 24.4958 32.6242C3.06438 31.3863 9.30204 16.9936 9.18069 16.3868C8.98652 16.8237 -5.11509 28.0611 11.0495 36.459Z" fill="white"/>
</svg>