<svg width="281" height="345" viewBox="0 0 281 345" fill="none" xmlns="http://www.w3.org/2000/svg">
    <path fill-rule="evenodd" clip-rule="evenodd" d="M133.835 10.3707C160.212 8.86013 187.905 -8.94209 211.386 6.69994C235.168 22.5422 243.757 59.9288 255.221 91.2325C266.849 122.984 276.931 154.936 278.522 190.02C280.398 231.369 287.226 280.547 265.17 310.528C243.02 340.636 204.346 328.062 172.577 334.032C145.716 339.079 119.929 348.124 93.0925 342.864C63.1957 337.004 25.1335 336.043 9.95682 302.156C-5.75855 267.065 23.5054 224.435 21.9076 183.917C20.5309 149.009 -6.30333 118.188 1.38056 84.6822C9.1137 50.9617 35.655 29.3141 60.5681 15.337C83.4746 2.4857 108.898 11.7988 133.835 10.3707Z" fill="#1D7478"/>
    <path fill-rule="evenodd" clip-rule="evenodd" d="M133.835 10.3707C160.212 8.86013 187.905 -8.94209 211.386 6.69994C235.168 22.5422 243.757 59.9288 255.221 91.2325C266.849 122.984 276.931 154.936 278.522 190.02C280.398 231.369 287.226 280.547 265.17 310.528C243.02 340.636 204.346 328.062 172.577 334.032C145.716 339.079 119.929 348.124 93.0925 342.864C63.1957 337.004 25.1335 336.043 9.95682 302.156C-5.75855 267.065 23.5054 224.435 21.9076 183.917C20.5309 149.009 -6.30333 118.188 1.38056 84.6822C9.1137 50.9617 35.655 29.3141 60.5681 15.337C83.4746 2.4857 108.898 11.7988 133.835 10.3707Z" fill="black" fill-opacity="0.35"/>
</svg>