<svg width="222" height="417" viewBox="0 0 222 417" fill="none" xmlns="http://www.w3.org/2000/svg">
<path d="M64.0622 382.384L55.6326 402.636L41.8892 395.338L50.2761 375.469L64.0622 382.384Z" fill="#FCC9A7"/>
<path d="M60.2637 401.441C60.2637 400.225 59.2181 399.435 58.1724 399.883C56.1236 400.758 52.7518 401.505 48.7184 399.691C44.5356 397.813 43.7673 394.719 43.746 392.691C43.746 391.624 42.9777 390.813 42.0174 390.963L11.3507 395.38C9.49405 395.658 7.74413 396.725 6.50637 398.389C5.33262 399.947 5.88748 402.209 7.53072 402.722L53.3067 416.636C55.0993 417.191 57.0626 415.889 57.5961 413.797L60.1784 403.554C60.2211 403.383 60.2424 403.212 60.2424 403.042L60.2637 401.441Z" fill="#070A11"/>
<path d="M188.329 333.257L207.536 343.842L198.808 356.711L179.964 346.211L188.329 333.257Z" fill="#FCC9A7"/>
<path d="M206.853 339.105C205.637 338.977 204.74 339.937 205.061 341.004C205.701 343.117 206.085 346.574 203.844 350.373C201.518 354.321 198.36 354.769 196.332 354.534C195.265 354.427 194.39 355.089 194.412 356.049L195.457 387.015C195.521 388.893 196.396 390.749 197.911 392.158C199.32 393.481 201.646 393.204 202.329 391.603L221.13 347.62C221.877 345.891 220.789 343.8 218.783 343.053L208.881 339.361C208.71 339.297 208.539 339.254 208.368 339.233L206.853 339.105Z" fill="#070A11"/>
<path d="M74.2207 186.732L81.626 234.237L119.058 301.524L183.507 357.565L198.531 330.996L147.42 283.32L117.436 187.543L74.2207 186.732Z" fill="#EF6C21"/>
<path d="M74.2207 186.732L81.626 234.237L119.058 301.524L183.507 357.565L198.531 330.996L147.42 283.32L117.436 187.543L74.2207 186.732Z" fill="black" fill-opacity="0.3"/>
<path d="M135.042 184.021C135.042 184.021 142.49 198.106 130.923 220.6L95.0068 289.146L67.6266 393.033L40.4385 383.536L59.9653 278.476L94.58 196.484L74.2209 186.732L135.042 184.021Z" fill="#EF6C21"/>
<path d="M56.7424 50.3643C61.4801 55.5501 69.5255 55.9129 74.69 51.1966C79.8758 46.4589 80.2386 38.4135 75.5223 33.2277C70.7846 28.0419 62.7605 27.6791 57.5534 32.3954C52.3676 37.1544 52.0047 45.1785 56.7424 50.3643Z" fill="#FCC9A7"/>
<path d="M46.584 56.8943L57.6385 43.5776L66.4522 52.434L56.0806 65.1318L46.584 56.8943Z" fill="#FCC9A7"/>
<path d="M71.5318 25.7159L61.3949 39.2886C60.0718 41.0598 60.1145 43.514 61.5016 45.2213L69.7178 55.3582C71.6385 57.727 75.2237 57.7483 77.1658 55.4222L88.6258 41.7855C90.205 39.9075 90.1196 37.1331 88.4337 35.3405L78.8944 25.2677C76.8457 23.1122 73.3244 23.3044 71.5318 25.7159Z" fill="#070A11"/>
<path d="M82.0099 73.5617L41.8252 93.7287L63.8916 59.6902L49.3372 47.0991L3.32646 110.14C-0.856332 115.56 0.765568 123.456 6.76233 126.764C9.81406 128.45 13.4847 128.621 16.6858 127.212L76.2692 103.545L82.0099 73.5617Z" fill="#F7ECE7"/>
<path d="M67.6265 92.9177C67.6265 92.9177 74.7329 148.638 74.2208 186.732C74.2208 186.732 95.5402 196.122 140.74 182.4L129.557 78.7901L107.79 71.4702L82.0101 73.5616L67.6265 92.9177Z" fill="#F7ECE7"/>
<path d="M89.3086 68.1411L89.8635 71.769C89.9062 72.0251 89.8208 72.3026 89.6288 72.4946L84.0588 78.406C83.5466 78.9395 82.6503 78.6408 82.565 77.9152L81.9888 73.5617C81.9461 73.2842 82.0528 73.0068 82.2662 72.8147L87.8361 67.6289C88.3696 67.1594 89.2233 67.4368 89.3086 68.1411Z" fill="#FCF3F0"/>
<path d="M96.7564 77.5096C103.372 76.9761 108.302 71.15 107.768 64.5344L106.168 45.157L82.1807 47.1204L87.1317 73.903C87.9213 77.3175 90.1194 78.0431 96.7564 77.5096Z" fill="#FCC9A7"/>
<path d="M106.979 51.9436C106.979 51.9436 101.814 66.626 91.3362 64.8121C81.7115 63.1475 82.181 47.1206 82.181 47.1206L106.979 51.9436Z" fill="#F4BE9A"/>
<path d="M93.0009 59.4769L95.1349 59.2422C105.763 58.0898 113.467 48.5291 112.314 37.9014L111.012 25.7798C109.86 15.1521 100.299 7.44808 89.6717 8.60048L87.5376 8.83523C76.9099 9.98763 69.2059 19.5483 70.3583 30.176L71.6601 42.2976C72.8125 52.9466 82.3731 60.6293 93.0009 59.4769Z" fill="#FCC9A7"/>
<path d="M93.0009 59.4769L95.1349 59.2422C105.763 58.0898 113.467 48.5291 112.314 37.9014L111.012 25.7798C109.86 15.1521 100.299 7.44808 89.6717 8.60048L87.5376 8.83523C76.9099 9.98763 69.2059 19.5483 70.3583 30.176L71.6601 42.2976C72.8125 52.9466 82.3731 60.6293 93.0009 59.4769Z" fill="#FCC9A7"/>
<path d="M111.887 34.06C110.436 33.9106 104.354 38.5202 102.775 36.5142C100.598 33.7399 98.6133 28.6821 101.43 23.4323C101.9 22.5573 102.028 21.533 101.729 20.5726C101.174 18.844 99.6803 16.838 95.5615 18.2892C88.9672 20.6153 74.1354 28.0845 69.8459 17.3928C64.4253 3.92679 107.064 7.6828 107.064 7.6828L116.774 21.725L112.613 41.7426L111.887 34.06Z" fill="#070A11"/>
<path d="M105.954 36.0874C106.36 39.886 109.774 42.639 113.573 42.2121C117.372 41.8067 120.125 38.3921 119.698 34.5935C119.292 30.7948 115.878 28.0419 112.079 28.4687C108.281 28.8955 105.549 32.2887 105.954 36.0874Z" fill="#FCC9A7"/>
<path d="M94.5802 81.6284L100.022 165.519L89.8853 175.037L83.8672 165.818L89.8853 79.9639L94.5802 81.6284Z" fill="#EF6C21"/>
<path d="M86.4707 75.8451L87.303 74.6927L87.0896 73.6897H99.0831L100.022 76.8268L92.0406 83.8693L86.4707 75.8451Z" fill="#EF6C21"/>
<path d="M107 63.4033L95.6466 71.1287C94.3662 72.0037 94.1955 73.839 95.3052 74.9274L104.226 83.6984C105.229 84.6801 106.872 84.6374 107.811 83.5704L116.795 73.4762C117.67 72.4945 117.628 70.9793 116.689 70.0617L110.116 63.6381C109.283 62.8485 107.982 62.7417 107 63.4033Z" fill="#FCF3F0"/>
<path d="M58.8979 67.3945L41.9106 57.1509" stroke="#EADDD8" stroke-width="0.7599" stroke-miterlimit="10" stroke-linecap="round" stroke-linejoin="round"/>
<path d="M89.8421 147.849L83.888 211.508C83.6533 213.898 85.2965 216.075 87.6653 216.545L160.672 230.501C163.361 231.014 165.901 229.136 166.199 226.425L172.879 165.924C173.135 163.577 171.599 161.4 169.294 160.845L95.5614 143.751C92.8085 143.09 90.1195 145.032 89.8421 147.849Z" fill="#AFAFAF"/>
<path d="M95.0281 148.98L89.074 212.639C88.8606 215.029 90.4825 217.206 92.8513 217.676L165.858 231.632C168.547 232.145 171.087 230.267 171.385 227.556L178.065 167.055C178.321 164.708 176.785 162.531 174.48 161.976L100.747 144.861C97.9731 144.221 95.2842 146.163 95.0281 148.98Z" fill="#D1D1D1"/>
<path d="M122.579 207.56C116.71 202.182 107.576 202.588 102.198 208.456C96.8206 214.325 97.2261 223.459 103.095 228.837C108.963 234.215 118.097 233.809 123.475 227.94C128.853 222.05 128.448 212.938 122.579 207.56Z" fill="#FCC9A7"/>
<path d="M133.398 199.152L122.259 215.328L111.417 206.194L121.832 190.808L133.398 199.152Z" fill="#FCC9A7"/>
<path d="M129.579 78.79C129.579 78.79 145.904 80.4333 150.642 107.131L169.422 146.142C169.934 147.849 170.276 149.599 170.446 151.349L130.945 208.094L113.125 197.53L145.072 146.312L125.673 115.603L129.579 78.79Z" fill="#F7ECE7"/>
<path d="M118.929 189.869L136.919 199.515" stroke="#EADDD8" stroke-width="0.7599" stroke-miterlimit="10" stroke-linecap="round" stroke-linejoin="round"/>
<path d="M135.17 130.649L123.667 110.631" stroke="#EADDD8" stroke-width="0.7599" stroke-miterlimit="10" stroke-linecap="round" stroke-linejoin="round"/>
<path d="M74.2425 22.1517C66.0903 18.4598 67.7976 8.94178 69.6543 5.93273C69.6543 5.93273 70.017 11.2893 73.6663 10.0515C73.6663 10.0515 73.1755 2.07005 83.8672 0C83.8672 0 79.9192 7.1705 93.9827 5.80469C111.247 4.11877 112.25 15.0453 111.29 28.618L105.998 24.8193L101.9 15.3654H87.922L74.2425 22.1517Z" fill="#070A11"/>
</svg>
