<svg width="207" height="20" viewBox="0 0 207 20" fill="none" xmlns="http://www.w3.org/2000/svg">
    <path d="M12.9835 15.8794H5.76019L4.38709 20H0.00683594L7.45007 0.00455815H11.2674L18.7505 20H14.3703L12.9835 15.8794ZM6.87234 12.5429H11.8713L9.36444 5.0584L6.87234 12.5429ZM29.4265 12.6796H26.1448V20H22.0243V0.00455815H29.4539C31.8157 0.00455815 33.6389 0.531024 34.9235 1.58396C36.2081 2.63689 36.8489 4.12474 36.8458 6.04752C36.8458 7.41496 36.5484 8.5545 35.9536 9.46613C35.3588 10.3778 34.4662 11.0995 33.2758 11.6312L37.6059 19.8017V19.9943H33.1846L29.4265 12.6796ZM26.1448 9.34306H29.4676C30.5022 9.34306 31.3033 9.0821 31.8708 8.5602C32.4382 8.03829 32.722 7.30899 32.722 6.37229C32.722 5.43027 32.4519 4.68881 31.9118 4.14791C31.3717 3.60701 30.5524 3.33846 29.4539 3.34226H26.1493L26.1448 9.34306ZM55.7559 3.34226H49.6322V20H45.5118V3.34226H39.4724V0.00455815H55.7559V3.34226ZM71.5528 11.3338H63.6436V16.6896H72.9271V20H59.5242V0.00455815H72.8986V3.34226H63.6436V8.1078H71.5528V11.3338ZM93.0086 20H88.8881L80.8694 6.84405V20H76.7501V0.00455815H80.8694L88.9029 13.1879V0.00455815H93.0051L93.0086 20ZM109.547 15.8794H102.324L100.946 20H96.5706L104.013 0.00455815H107.83L115.314 20H110.934L109.547 15.8794ZM103.436 12.5429H108.435L105.921 5.0584L103.436 12.5429ZM126.998 20V0.00455815H133.151C134.908 0.00455815 136.478 0.403016 137.861 1.19993C139.251 1.98536 140.382 3.1591 141.116 4.57752C141.893 6.03384 142.282 7.69111 142.283 9.54931V10.4746C142.283 12.3336 141.899 13.9863 141.13 15.4327C140.403 16.8425 139.281 18.0101 137.902 18.7932C136.511 19.5886 134.942 19.9909 133.194 20H126.998ZM131.117 3.34226V16.6896H133.109C134.72 16.6896 135.952 16.1632 136.803 15.1102C137.655 14.0573 138.089 12.5501 138.107 10.5886V9.53564C138.107 7.50271 137.686 5.96471 136.844 4.92166C136.002 3.8786 134.771 3.35214 133.15 3.34226H131.117ZM158.719 11.3338H150.81V16.6896H160.093V20H146.695V0.00455815H160.069V3.34226H150.814V8.1078H158.719V11.3338ZM171.304 15.0419L175.835 0H180.422L173.46 19.9954H169.162L162.232 0.00455815H166.81L171.304 15.0419Z" fill="#EF6C21"/>
    <path d="M206.2 16.6475H185.172V19.9806H206.2V16.6475Z" fill="#EF6C21"/>
</svg>