<svg width="9" height="18" viewBox="0 0 9 18" fill="none" xmlns="http://www.w3.org/2000/svg"><path d="M7.1116 17.9999C6.9296 18.0006 6.74977 17.9582 6.58533 17.8759C6.42089 17.7935 6.27602 17.6734 6.16136 17.5242L0.277141 9.81068C0.0979561 9.58065 0 9.29211 0 8.99433C0 8.69656 0.0979561 8.40802 0.277141 8.17798L6.36846 0.464424C6.57525 0.201884 6.8724 0.0367824 7.19454 0.00543999C7.51668 -0.0259024 7.83743 0.0790816 8.08622 0.297296C8.33501 0.515511 8.49146 0.829082 8.52116 1.16903C8.55086 1.50897 8.45138 1.84744 8.24459 2.10998L2.79895 9.00076L8.06185 15.8915C8.21082 16.0802 8.30545 16.31 8.33455 16.5537C8.36364 16.7974 8.32597 17.0448 8.22601 17.2666C8.12604 17.4884 7.96796 17.6753 7.77047 17.8053C7.57297 17.9352 7.34433 18.0028 7.1116 17.9999Z" fill="#EF6C21"/></svg>