<svg width="19" height="18" viewBox="0 0 19 18" fill="none" xmlns="http://www.w3.org/2000/svg"><path d="M19 1.57424C19 1.17661 18.8333 0.79526 18.5365 0.514091C18.2397 0.232923 17.8372 0.0749641 17.4174 0.0749641L4.75688 0C4.33716 0 3.93463 0.157959 3.63784 0.439128C3.34105 0.720297 3.17431 1.10164 3.17431 1.49928C3.17431 1.89691 3.34105 2.27825 3.63784 2.55942C3.93463 2.84059 4.33716 2.99855 4.75688 2.99855H13.556L0.468121 15.4275C0.319789 15.5669 0.202056 15.7327 0.121711 15.9154C0.0413659 16.0981 0 16.2941 0 16.492C0 16.69 0.0413659 16.8859 0.121711 17.0686C0.202056 17.2513 0.319789 17.4171 0.468121 17.5565C0.615241 17.697 0.790275 17.8086 0.983126 17.8847C1.17598 17.9608 1.38283 18 1.59174 18C1.80066 18 2.00751 17.9608 2.20036 17.8847C2.39321 17.8086 2.56825 17.697 2.71537 17.5565L15.8349 5.12752V13.4935C15.8349 13.8911 16.0016 14.2725 16.2984 14.5536C16.5952 14.8348 16.9977 14.9928 17.4174 14.9928C17.8372 14.9928 18.2397 14.8348 18.5365 14.5536C18.8333 14.2725 19 13.8911 19 13.4935V1.57424Z" fill="white"/></svg>