<svg width="8" height="18" viewBox="0 0 8 18" fill="none" xmlns="http://www.w3.org/2000/svg"><path d="M1.13526 17.9977C0.87047 17.9983 0.613858 17.8939 0.40997 17.7026C0.295217 17.5949 0.200361 17.4627 0.130833 17.3134C0.0613047 17.1641 0.0184714 17.0008 0.00478626 16.8328C-0.0088989 16.6648 0.00683311 16.4953 0.0510809 16.3342C0.0953286 16.1731 0.167222 16.0234 0.262645 15.8938L5.33967 9.01759L0.443968 2.12859C0.349833 1.99736 0.279534 1.84637 0.237114 1.6843C0.194694 1.52222 0.180989 1.35225 0.196785 1.18416C0.212582 1.01607 0.257569 0.853166 0.329162 0.704819C0.400755 0.556472 0.497541 0.425605 0.613958 0.319739C0.731212 0.202951 0.868525 0.11486 1.01728 0.0609931C1.16604 0.00712667 1.32302 -0.0113514 1.47838 0.00671768C1.63375 0.0247868 1.78413 0.0790133 1.9201 0.165994C2.05608 0.252975 2.1747 0.370832 2.26853 0.512169L7.7422 8.20939C7.90888 8.43893 8 8.72686 8 9.02401C8 9.32115 7.90888 9.60908 7.7422 9.83863L2.07587 17.5358C1.96218 17.6911 1.81777 17.8138 1.65434 17.8941C1.49091 17.9743 1.31308 18.0098 1.13526 17.9977Z" fill="#EF6C21"/></svg>