<svg width="214" height="70" viewBox="0 0 214 70" fill="none" xmlns="http://www.w3.org/2000/svg">
<path d="M206.756 42.749L212.685 46.7015C210.76 49.5358 206.158 54.3983 198.201 54.3983C188.32 54.3983 180.961 46.7535 180.961 37.0284C180.961 26.6792 188.398 19.6584 197.369 19.6584C206.392 19.6584 210.812 26.8353 212.242 30.7097L213.023 32.6859L189.776 42.307C191.544 45.7914 194.3 47.5596 198.201 47.5596C202.101 47.5596 204.806 45.6354 206.756 42.749ZM188.528 36.4823L204.052 30.0336C203.193 27.8754 200.645 26.3412 197.603 26.3412C193.728 26.3412 188.346 29.7736 188.528 36.4823Z" fill="#EF6C21"/>
<path d="M169.75 1.95038H177.239V52.8121H169.75V1.95038Z" fill="#EF6C21"/>
<path d="M157.947 21.0105H165.176V51.902C165.176 64.7214 157.609 70 148.664 70C140.24 70 135.169 64.3314 133.271 59.7289L139.901 56.9726C141.098 59.8069 143.984 63.1613 148.664 63.1613C154.411 63.1613 157.947 59.5989 157.947 52.9421V50.4458H157.687C155.971 52.5261 152.695 54.3983 148.534 54.3983C139.849 54.3983 131.893 46.8314 131.893 37.0803C131.893 27.2772 139.849 19.6324 148.534 19.6324C152.669 19.6324 155.971 21.4786 157.687 23.5068H157.947V21.0105ZM158.468 37.0803C158.468 30.9437 154.385 26.4712 149.185 26.4712C143.932 26.4712 139.511 30.9437 139.511 37.0803C139.511 43.139 143.932 47.5335 149.185 47.5335C154.385 47.5595 158.468 43.139 158.468 37.0803Z" fill="#EF6C21"/>
<path d="M90.7809 36.9502C90.7809 46.9613 82.98 54.3201 73.411 54.3201C63.8419 54.3201 56.041 46.9353 56.041 36.9502C56.041 26.887 63.8419 19.5542 73.411 19.5542C82.98 19.5542 90.7809 26.887 90.7809 36.9502ZM83.1881 36.9502C83.1881 30.7095 78.6636 26.419 73.411 26.419C68.1584 26.419 63.6339 30.7095 63.6339 36.9502C63.6339 43.1388 68.1584 47.4813 73.411 47.4813C78.6636 47.4813 83.1881 43.1388 83.1881 36.9502Z" fill="#EF6C21"/>
<path d="M128.72 37.0284C128.72 47.0395 120.919 54.3983 111.35 54.3983C101.781 54.3983 93.9805 47.0395 93.9805 37.0284C93.9805 26.9653 101.781 19.6584 111.35 19.6584C120.919 19.6584 128.72 26.9393 128.72 37.0284ZM121.102 37.0284C121.102 30.7877 116.577 26.4972 111.324 26.4972C106.072 26.4972 101.547 30.7877 101.547 37.0284C101.547 43.2171 106.072 47.5596 111.324 47.5596C116.603 47.5596 121.102 43.1911 121.102 37.0284Z" fill="#EF6C21"/>
<path d="M27.4851 46.7793C16.5899 46.7793 8.0609 37.9903 8.0609 27.095C8.0609 16.1998 16.5899 7.41083 27.4851 7.41083C33.3617 7.41083 37.6522 9.72509 40.8246 12.6894L46.0512 7.46284C41.6307 3.22436 35.728 0 27.4851 0C12.5594 0 0 12.1694 0 27.095C0 42.0207 12.5594 54.1901 27.4851 54.1901C35.546 54.1901 41.6307 51.5378 46.3892 46.5972C51.2778 41.7087 52.7859 34.8439 52.7859 29.2793C52.7859 27.5371 52.5779 25.7429 52.3439 24.4167H27.4851V31.6456H45.1931C44.673 36.1701 43.2429 39.2644 41.1366 41.3706C38.5883 43.9449 34.5579 46.7793 27.4851 46.7793Z" fill="#EF6C21"/>
</svg>
