<svg width="521" height="70" viewBox="0 0 521 70" fill="none" xmlns="http://www.w3.org/2000/svg">
<path d="M280.032 14.2667H288.048V55.75H277.832L265.948 36.6667C263.915 33.3334 262.182 29.7834 262.182 29.7834H262.065V55.75H254.015V14.2667H263.448L277.532 36.8667C278.472 38.3543 279.281 39.9214 279.948 41.55V14.2667H280.032ZM326.132 31.25H312.165V14.25H301.982V55.7334H312.165V38.0334H326.132V55.7334H336.365V14.25H326.132V31.25V31.25ZM177.048 37.7H190.282V31.4667H177.048V20.6667H194.765V14.2667H166.832V55.75H195.065V48.8334H177.048V37.7167V37.7ZM140.282 23.7C140.045 23.4241 139.896 23.0848 139.851 22.7243C139.806 22.3638 139.869 21.9982 140.03 21.6729C140.192 21.3477 140.446 21.0773 140.76 20.8954C141.075 20.7135 141.436 20.6281 141.798 20.65H156.982V14.2667H139.015C136.709 14.1933 134.465 15.0234 132.763 16.58C131.06 18.1366 130.032 20.2967 129.898 22.6C129.898 25.0334 130.082 26.8 133.732 30.6334L147.248 44.8C147.605 45.1108 147.857 45.5241 147.97 45.9834C148.084 46.4427 148.053 46.9258 147.881 47.3668C147.71 47.8078 147.407 48.1852 147.013 48.4477C146.62 48.7101 146.155 48.8448 145.682 48.8334H129.015V55.75H148.082C149.393 55.7946 150.7 55.5759 151.925 55.1067C153.151 54.6375 154.269 53.9275 155.216 53.0186C156.162 52.1096 156.916 51.0202 157.434 49.8147C157.952 48.6092 158.223 47.3121 158.232 46C158.232 43.25 157.582 41.4167 153.965 37.6667L140.282 23.7ZM232.082 41.5C231.414 39.8714 230.606 38.3043 229.665 36.8167L215.582 14.2167H206.148V55.75H214.165V29.8334H214.282C214.282 29.8334 215.948 33.4334 218.048 36.7167L229.948 55.8H240.165V14.2667H232.148V41.5167L232.082 41.5ZM457.248 37.7H470.482V31.4667H457.248V20.6667H474.965V14.2667H447.032V55.75H475.265V48.8334H457.248V37.7167V37.7ZM520.098 55.75H509.015L501.048 38.7167H496.582V55.75H486.382V14.2667H504.982C513.948 14.2667 518.115 19.85 518.115 26.3C518.113 28.7713 517.342 31.1807 515.908 33.1937C514.475 35.2067 512.45 36.7234 510.115 37.5334L520.098 55.75ZM509.382 26.5667C509.382 24.65 508.265 20.6667 502.882 20.6667H496.565V32.4667H502.765C508.365 32.4667 509.382 28.3334 509.382 26.5667V26.5667ZM420.348 23.7167C420.112 23.4408 419.962 23.1015 419.918 22.741C419.873 22.3805 419.935 22.0149 420.097 21.6896C420.259 21.3644 420.513 21.0939 420.827 20.912C421.141 20.7301 421.502 20.6448 421.865 20.6667H437.048V14.2667H419.015C416.709 14.1933 414.465 15.0234 412.763 16.58C411.06 18.1366 410.032 20.2967 409.898 22.6C409.898 25.0334 410.082 26.8 413.732 30.6334L427.248 44.8C427.635 45.0993 427.917 45.5142 428.052 45.9843C428.187 46.4545 428.168 46.9554 427.999 47.4144C427.83 47.8734 427.519 48.2666 427.111 48.5367C426.704 48.8069 426.22 48.94 425.732 48.9167H409.015V55.8334H428.082C429.393 55.8779 430.7 55.6592 431.925 55.19C433.151 54.7209 434.269 54.0108 435.216 53.1019C436.162 52.1929 436.916 51.1035 437.434 49.898C437.952 48.6925 438.223 47.3954 438.232 46.0834C438.232 43.3334 437.582 41.5 433.965 37.75L420.348 23.7167ZM360.498 37.7167H373.732V31.4667H360.515V20.6667H378.232V14.2667H350.298V55.75H378.532V48.8334H360.515V37.7167H360.498ZM389.632 55.7667H399.848V14.2667H389.632V55.75V55.7667ZM0.681641 3.05176e-05V70H94.015V3.05176e-05H0.681641ZM52.0483 6.45003C46.4983 8.58336 41.165 13.2834 36.865 22.7167C35.615 25.45 33.265 30.7334 32.1983 33.1C23.5483 52.0834 19.115 56.1667 6.06497 56.1667V5.25003H51.815C51.9641 5.24119 52.1114 5.28679 52.2295 5.37836C52.3475 5.46993 52.4283 5.60125 52.4568 5.74791C52.4853 5.89457 52.4596 6.0466 52.3845 6.17574C52.3094 6.30488 52.1899 6.40234 52.0483 6.45003V6.45003ZM88.715 13.8167V64.75H42.8816C42.7342 64.7542 42.5901 64.7053 42.4756 64.6123C42.361 64.5193 42.2836 64.3884 42.2574 64.2432C42.2312 64.098 42.2579 63.9482 42.3327 63.821C42.4075 63.6939 42.5254 63.5977 42.665 63.55V63.55C48.215 61.4167 53.5483 56.7167 57.8483 47.2834C59.0983 44.55 61.4483 39.2667 62.515 36.9C71.1483 17.9167 75.5816 13.8334 88.6316 13.8334L88.715 13.8167Z" fill="#EF6C21"/>
</svg>
