<svg width="288" height="70" viewBox="0 0 288 70" fill="none" xmlns="http://www.w3.org/2000/svg">
<path d="M283.903 31.5613C281.123 25.3743 276.449 20.1469 270.654 16.997C263.984 13.369 254.536 10.9169 243.745 11.7242C224.486 13.1493 211.299 22.0232 208.047 39.5901C206.826 46.1592 207.618 53.7554 209.537 59.0282C210.346 61.2606 214.029 68.8845 215.724 69.4762C218.172 69.3432 231.494 69.4594 236.748 69.4569C236.742 64.7371 236.736 60.0333 236.732 55.3177C253.386 55.3025 270.06 55.2874 286.72 55.268C287.867 46.6904 286.625 37.6338 283.903 31.5613ZM235.832 40.447C236.029 37.888 236.348 36.0723 237.295 34.4082C238.776 31.7894 241.413 29.9805 245.085 29.6017C254.13 28.658 258.217 32.8955 259.062 40.4234C251.321 40.4276 243.569 40.4394 235.832 40.447Z" fill="#EF6C21"/>
<path d="M157.87 0.0303342C167.384 0.0185494 176.88 0.00760643 186.394 3.05176e-05C186.399 4.31409 186.402 8.6433 186.406 12.9565C192.003 12.9532 197.566 12.9456 203.168 12.9414C203.174 18.8775 203.18 24.817 203.184 30.7616C197.586 30.7658 192.02 30.7734 186.425 30.7767C186.439 43.6844 186.452 56.5121 186.463 69.4198C179.425 70.0376 170.807 70.5579 165.295 68.7901C162.363 67.8499 159.881 65.1369 158.819 62.3186C157.886 59.8708 157.853 38.3889 157.844 30.807C154.017 30.807 150.113 30.8113 146.29 30.8188C146.282 24.8743 146.278 18.9356 146.271 12.9986C150.094 12.9952 153.999 12.991 157.826 12.9868C157.821 8.7258 157.71 4.03715 157.87 0.0303342Z" fill="#EF6C21"/>
<path d="M38.0605 11.4893C54.3344 10.2763 72.5612 15.348 76.0074 26.9097C76.116 27.429 76.5402 29.7111 76.5402 29.7111C76.5402 29.7111 76.6311 61.4886 76.6387 69.6159C67.1831 69.6277 57.7158 69.6336 48.2652 69.6454C48.2593 64.2968 48.2543 58.9372 48.2501 53.592C40.2971 55.938 23.3144 59.3497 34.1488 69.6614C27.2859 69.6681 9.12556 69.7287 5.92348 69.6875C1.77272 68.7649 -0.676826 63.072 0.322352 57.6173C1.22725 52.6551 4.37126 49.1719 8.10365 47.0077C17.2511 41.6936 30.8188 41.9891 42.6473 39.165C44.1936 38.7937 45.75 38.6229 46.9083 37.835C47.6154 37.3535 47.905 36.6902 48.0834 35.6245C48.8722 30.8256 44.0539 29.4038 39.5487 29.4535C38.2011 29.4653 36.334 29.6774 35.1379 30.0486C34.3037 30.2986 33.1437 30.8441 32.4922 31.3752C31.1235 32.4746 30.2893 34.0403 30.2935 36.5302C21.1822 36.5386 12.0549 36.5487 2.94614 36.5572C3.27191 34.1228 3.69279 32.1143 4.41082 30.2229C5.70798 26.8036 7.43192 24.1082 9.69544 21.6755C15.9186 14.981 26.0038 12.3841 38.0605 11.4893Z" fill="#EF6C21"/>
<path d="M131.861 11.6871C134.989 11.4556 137.734 12.2595 139.948 13.0053C139.954 18.9423 139.96 24.8818 139.966 30.8222C134.887 30.8298 129.387 30.515 125.853 32.0158C123.721 32.914 121.581 35.0108 120.713 37.1792C119.599 39.9385 119.986 44.4269 119.989 48.2215C119.997 55.3286 120.003 62.46 120.012 69.5755C110.357 69.5822 100.695 69.5932 91.0475 69.6016C91.029 50.7502 91.0096 31.9064 90.9902 13.055C99.8111 13.0432 108.886 13.0365 117.715 13.0247C117.718 15.2428 117.552 18.0475 117.754 19.8035C120.622 15.2116 124.915 12.2023 131.861 11.6871Z" fill="#EF6C21"/>
</svg>
