<svg width="129" height="70" viewBox="0 0 129 70" fill="none" xmlns="http://www.w3.org/2000/svg">
<path d="M23.0075 14.2015C23.0075 14.2015 22.7995 16.2142 23.7068 17.9879C23.7068 17.9879 24.3791 18.9402 23.681 19.5518L22.2912 20.3592C22.2912 20.3592 22.1044 20.4981 21.4845 20.451C21.4845 20.451 20.6277 20.2389 20.3414 20.6172C20.3414 20.6172 20.0928 21.3445 19.7815 21.944C19.7815 21.944 19.1487 23.3971 18.1013 23.8626C18.1013 23.8626 17.2665 24.0538 17.0133 24.7774C17.0133 24.7774 16.7442 25.285 16.2051 25.3074C16.2051 25.3074 15.8031 25.4349 15.537 26.3299C15.537 26.3299 15.392 26.9089 15.3996 27.3528C15.3996 27.3528 16.0852 27.2628 16.532 27.4245C16.532 27.4245 17.6306 27.7932 18.1218 26.8887C18.1218 26.8887 19.0709 25.2645 19.7747 25.5089C19.7747 25.5089 21.1884 25.9816 22.1868 24.9504C22.1868 24.9504 23.5583 23.4529 25.4955 23.7609C25.4955 23.7609 27.6776 24.2026 28.3582 23.6995C28.3582 23.6995 29.7344 22.9805 30.2506 22.8022C30.2506 22.8022 30.8823 22.6167 30.9476 21.9254C30.9476 21.9254 31.3318 20.953 31.6112 20.629L30.5703 20.6172C30.5703 20.6172 29.6277 22.2016 28.0261 22.6793C28.0261 22.6793 27.1503 23.0291 25.3923 22.7449C25.3923 22.7449 22.8682 22.1735 20.6512 24.5664C20.6512 24.5664 20.3483 25.0039 19.9159 24.829C19.9159 24.829 21.1409 22.7411 23.8305 22.2464C23.8305 22.2464 24.7109 22.0593 25.445 22.1784C25.445 22.1784 29.0677 22.2847 30.7476 18.7202C30.7476 18.7202 30.5657 15.6812 31.3679 14.9614C31.3679 14.9614 31.6776 14.8666 31.6157 15.4543C31.6157 15.4543 31.0645 18.6379 32.0998 19.2544C32.0998 19.2544 32.7007 19.7264 33.8126 19.5518C33.8126 19.5518 35.4981 19.1493 36.8681 19.3838C36.8681 19.3838 38.975 19.8834 40.7854 19.6524C40.7854 19.6524 40.3155 18.933 40.4077 18.0729C40.4077 18.0729 40.667 17.4571 40.9642 17.8532C40.9642 17.8532 41.6608 20.1532 43.5646 20.8433C43.5646 20.8433 45.2649 21.4621 45.2372 23.6175C45.2372 23.6175 44.9768 23.9131 42.7222 24.7136C42.7222 24.7136 41.8799 24.9796 41.6084 24.3505C41.6084 24.3505 40.5212 22.0248 39.5748 22.0965L37.7978 22.2407C37.7978 22.2407 37.1916 22.3958 37.638 22.8815C37.638 22.8815 38.2465 23.69 38.4952 24.1726C38.4952 24.1726 38.5677 24.585 39.1394 24.4974C39.1394 24.4974 39.9324 24.1047 40.3796 25.579C40.3796 25.579 40.7888 26.3162 41.4817 26.5518C41.4817 26.5518 42.1297 26.7681 42.7378 26.427C42.7378 26.427 45.6726 25.3503 46.1836 24.9686C46.1836 24.9686 46.8183 24.6135 47.3217 24.7842C47.3217 24.7842 48.202 24.994 48.5646 24.2997L49.4741 22.8932C49.4741 22.8932 49.6738 22.5469 49.6461 22.1117C49.6461 22.1117 49.7285 21.6807 49.3648 21.2425C49.3648 21.2425 49.0213 20.8794 48.967 20.6164L48.3186 19.0935C48.3186 19.0935 48.0559 18.6868 47.7674 18.5195L46.9018 18.5828C46.9018 18.5828 47.4975 20.1042 47.9337 20.7242C47.9337 20.7242 48.524 21.6264 48.494 22.2001C48.494 22.2001 48.4549 22.6022 48.2962 22.7699C48.2962 22.7699 48.0965 23.0894 48.016 23.2446C48.016 23.2446 47.7537 23.8137 47.5407 23.94C47.5407 23.94 47.1725 24.1578 47.0829 24.1665C47.0829 24.1665 46.9227 24.2109 47.0415 23.9241C47.0415 23.9241 47.5267 22.9039 47.4948 22.3583C47.4948 22.3583 47.589 21.7899 47.1866 21.4572C47.1866 21.4572 46.2436 19.9696 46.1084 19.5249C46.1084 19.5249 45.8127 18.93 45.6552 18.8279C45.6552 18.8279 45.3257 18.395 45.8575 18.1924C45.8575 18.1924 47.1824 17.8935 47.4196 17.7311C47.4196 17.7311 48.0566 17.5383 48.4704 16.2123C48.4704 16.2123 49.0402 14.6659 49.0319 13.7113C49.0319 13.7113 50.1487 15.8633 48.3676 18.0517C48.3676 18.0517 49.7771 18.4671 50.3602 18.0517C50.3602 18.0517 52.1159 17.7952 52.4549 17.7019C52.4549 17.7019 52.8964 17.5953 52.6443 17.9083C52.6443 17.9083 52.1148 18.661 52.07 19.1542C52.07 19.1542 52.0358 19.5469 51.7139 19.7768C51.7139 19.7768 50.7159 20.4753 50.6282 21.1442C50.6282 21.1442 50.4148 21.788 50.8556 21.634C50.8556 21.634 51.4531 21.3574 51.6642 21.6359C51.6642 21.6359 51.726 21.6651 51.4956 21.9235C51.4956 21.9235 50.8962 22.4448 50.8514 23.1444C50.8514 23.1444 50.9623 23.9518 51.1741 24.2113C51.1741 24.2113 51.444 24.5854 51.8707 24.4666C51.8707 24.4666 51.9838 24.3752 52.188 24.4367C52.188 24.4367 52.3991 24.4359 52.9503 24.2454C52.9503 24.2454 53.7859 24.0159 54.0653 23.9173C54.0653 23.9173 55.1289 23.5371 55.6536 23.5637C55.6536 23.5637 55.9949 23.5261 56.4299 23.613C56.4299 23.613 57.7601 23.764 58.6465 22.7847C58.6465 22.7847 59.3211 22.2502 59.55 22.7692C59.55 22.7692 61.1683 24.9394 63.7877 24.3676C63.7877 24.3676 61.7036 23.5109 61.163 22.3442C61.163 22.3442 61.0909 21.3536 59.9991 19.9779C59.9991 19.9779 59.6654 19.5215 59.9873 19.4027C59.9873 19.4027 60.1737 19.2635 60.5803 19.6713C60.5803 19.6713 61.6174 20.6658 61.9921 21.576C61.9921 21.576 63.2801 23.5212 65.1365 22.8674C65.1365 22.8674 63.6791 22.3055 62.9943 21.2576C62.9943 21.2576 62.571 19.8394 61.1482 18.7843C61.1482 18.7843 61.0924 17.1904 60.4288 16.2947C60.4288 16.2947 60.0906 14.7979 59.9995 14.4481C59.9995 14.4481 59.6415 13.1335 59.6437 12.7704C59.6437 12.7704 59.7622 11.0532 58.6545 9.71656C58.6545 9.71656 57.9123 8.28659 56.7564 7.29027C56.7564 7.29027 55.8779 6.20556 55.2246 5.54122C55.2246 5.54122 54.3652 4.53428 52.4914 3.22041C52.4914 3.22041 51.6429 2.60388 51.0215 1.94106C51.0215 1.94106 47.7161 -0.436662 45.3283 1.4706C45.3283 1.4706 43.6793 2.59174 42.302 2.93889C42.302 2.93889 39.4716 3.26821 38.2648 5.23163C38.2648 5.23163 38.1615 5.59434 37.0208 5.73244C37.0208 5.73244 34.5149 5.43005 32.6699 7.89314C32.6699 7.89314 31.8128 8.72935 30.1159 8.93271C30.1159 8.93271 27.3484 8.64967 25.5468 10.7702C25.5468 10.7702 21.0005 14.7338 18.2896 12.1633C18.2896 12.1633 16.885 10.8343 18.4908 8.42772C18.4908 8.42772 19.5093 7.19921 21.2468 5.91569C21.2468 5.91569 22.6564 4.92317 22.0103 3.38014C22.0103 3.38014 21.669 1.88908 19.5564 1.84962C19.5564 1.84962 16.9055 1.33781 15.8335 3.05176e-05C15.8335 3.05176e-05 14.6365 4.21331 19.3343 4.14312C19.3343 4.14312 20.5586 4.32409 20.1311 5.29537C20.1311 5.29537 19.531 6.12626 18.7254 6.42865C18.7254 6.42865 17.3083 7.04821 16.6679 9.11065C16.6679 9.11065 15.2367 12.7211 18.7284 14.1146C20.0723 14.5786 21.6246 14.442 23.0075 14.2015V14.2015ZM16.2848 22.7092C16.4743 22.551 16.7518 22.4619 16.9981 22.5195C17.5539 22.639 17.2176 23.1201 17.2176 23.1201C16.9925 23.5409 16.2579 24.2507 16.2579 24.2507C15.6046 24.7398 15.0871 24.1574 15.0871 24.1574C14.6031 23.6805 15.2329 23.4498 15.2329 23.4498C15.5993 23.3011 16.2848 22.7092 16.2848 22.7092V22.7092ZM14.884 24.9659C14.884 24.9659 15.0871 25.1158 14.9786 25.4117C14.9786 25.4117 14.46 26.8303 14.4843 27.3065C14.4843 27.3065 13.3367 27.5113 13.1777 26.9453C13.1777 26.9453 13.1469 26.7267 13.3341 26.4099C13.3341 26.4099 13.5288 26.1144 13.5793 25.5737C13.5793 25.5737 13.5622 24.2132 14.4441 24.5736C14.6191 24.6715 14.7573 24.8138 14.884 24.9659V24.9659ZM55.3324 22.087C55.1305 22.0821 55.0792 22.0081 55.1035 21.7858C55.239 21.1677 55.7348 20.901 55.7348 20.901C56.6649 20.3455 56.778 20.9018 56.778 20.9018C56.9485 21.8939 56.1638 22.0187 56.1638 22.0187C56.007 22.0726 55.3324 22.087 55.3324 22.087V22.087ZM58.1382 17.6563C58.1553 17.1908 58.1947 16.1562 57.7214 15.7866C57.5467 15.6478 56.8558 14.8916 56.8558 14.8916C56.7507 14.7084 56.6698 14.697 56.6698 14.697C56.5275 14.6833 56.3437 15.0142 56.3437 15.0142C55.8517 15.9631 55.3609 15.8473 55.3609 15.8473C55.3567 15.6743 55.4725 15.4812 55.4725 15.4812C55.71 15.0202 55.9452 14.5581 56.1782 14.0949C56.25 13.9302 56.316 13.7109 56.316 13.7109C56.7909 12.9753 57.2385 13.5353 57.2385 13.5353C57.4382 13.9249 58.503 15.1944 58.503 15.1944C58.7391 15.4751 58.7619 15.7768 58.7619 15.7768C59.0086 17.5156 58.1382 17.6563 58.1382 17.6563V17.6563ZM48.3307 7.15976C48.1853 6.89835 48.2453 6.63163 48.3915 6.37743C48.721 5.87282 49.0289 6.42333 49.0289 6.42333C50.1666 8.00848 49.3265 10.3817 49.3265 10.3817C49.2095 8.19742 48.3307 7.15976 48.3307 7.15976V7.15976ZM109.416 14.2015C109.416 14.2015 109.624 16.2142 108.717 17.9879C108.717 17.9879 108.045 18.9402 108.743 19.5518L110.133 20.3592C110.133 20.3592 110.319 20.4981 110.94 20.451C110.94 20.451 111.796 20.2389 112.082 20.6172C112.082 20.6172 112.331 21.3445 112.642 21.944C112.642 21.944 113.276 23.3971 114.323 23.8626C114.323 23.8626 115.158 24.0538 115.41 24.7774C115.41 24.7774 115.68 25.285 116.218 25.3074C116.218 25.3074 116.621 25.4349 116.887 26.3299C116.887 26.3299 117.032 26.9089 117.025 27.3528C117.025 27.3528 116.339 27.2628 115.892 27.4245C115.892 27.4245 114.794 27.7932 114.302 26.8887C114.302 26.8887 113.353 25.2645 112.65 25.5089C112.65 25.5089 111.236 25.9816 110.237 24.9504C110.237 24.9504 108.866 23.4529 106.929 23.7609C106.929 23.7609 104.747 24.2026 104.066 23.6995C104.066 23.6995 102.69 22.9805 102.174 22.8022C102.174 22.8022 101.542 22.6167 101.477 21.9254C101.477 21.9254 101.093 20.953 100.813 20.629L101.854 20.6172C101.854 20.6172 102.796 22.2016 104.398 22.6793C104.398 22.6793 105.274 23.0291 107.032 22.7449C107.032 22.7449 109.556 22.1735 111.773 24.5664C111.773 24.5664 112.076 25.0039 112.508 24.829C112.508 24.829 111.284 22.7411 108.594 22.2464C108.594 22.2464 107.714 22.0593 106.979 22.1784C106.979 22.1784 103.356 22.2847 101.676 18.7202C101.676 18.7202 101.858 15.6812 101.056 14.9614C101.056 14.9614 100.747 14.8666 100.808 15.4543C100.808 15.4543 101.359 18.6379 100.324 19.2544C100.324 19.2544 99.7227 19.7264 98.6108 19.5518C98.6108 19.5518 96.9257 19.1493 95.5561 19.3838C95.5561 19.3838 93.4484 19.8834 91.638 19.6524C91.638 19.6524 92.1084 18.933 92.0161 18.0729C92.0161 18.0729 91.7565 17.4571 91.4592 17.8532C91.4592 17.8532 90.7626 20.1532 88.8584 20.8433C88.8584 20.8433 87.1581 21.4621 87.1858 23.6175C87.1858 23.6175 87.447 23.9131 89.702 24.7136C89.702 24.7136 90.5447 24.9796 90.8161 24.3505C90.8161 24.3505 91.9022 22.0248 92.849 22.0965L94.6267 22.2407C94.6267 22.2407 95.2326 22.3958 94.7858 22.8815C94.7858 22.8815 94.178 23.69 93.9286 24.1726C93.9286 24.1726 93.8569 24.585 93.2848 24.4974C93.2848 24.4974 92.4918 24.1047 92.0438 25.579C92.0438 25.579 91.6353 26.3162 90.9425 26.5518C90.9425 26.5518 90.2942 26.7681 89.6864 26.427C89.6864 26.427 86.7516 25.3503 86.241 24.9686C86.241 24.9686 85.6059 24.6135 85.1029 24.7842C85.1029 24.7842 84.2233 24.994 83.8608 24.2997L82.9512 22.8932C82.9512 22.8932 82.7508 22.5469 82.7789 22.1117C82.7789 22.1117 82.6961 21.6807 83.0601 21.2425C83.0601 21.2425 83.4041 20.8794 83.458 20.6164L84.1068 19.0935C84.1068 19.0935 84.3694 18.6868 84.6576 18.5195L85.5239 18.5828C85.5239 18.5828 84.9275 20.1042 84.4909 20.7242C84.4909 20.7242 83.9006 21.6264 83.9306 22.2001C83.9306 22.2001 83.9701 22.6022 84.1284 22.7699C84.1284 22.7699 84.3281 23.0894 84.4089 23.2446C84.4089 23.2446 84.6701 23.8137 84.8838 23.94C84.8838 23.94 85.2517 24.1578 85.3417 24.1665C85.3417 24.1665 85.5022 24.2109 85.3819 23.9241C85.3819 23.9241 84.8983 22.9039 84.929 22.3583C84.929 22.3583 84.8356 21.7899 85.2373 21.4572C85.2373 21.4572 86.181 19.9696 86.3169 19.5249C86.3169 19.5249 86.6115 18.93 86.7694 18.8279C86.7694 18.8279 87.0989 18.395 86.5671 18.1924C86.5671 18.1924 85.2426 17.8935 85.0053 17.7311C85.0053 17.7311 84.3683 17.5383 83.9541 16.2123C83.9541 16.2123 83.3847 14.6659 83.3927 13.7113C83.3927 13.7113 82.2759 15.8633 84.0574 18.0517C84.0574 18.0517 82.6479 18.4671 82.0648 18.0517C82.0648 18.0517 80.3094 17.7952 79.9693 17.7019C79.9693 17.7019 79.5289 17.5953 79.7802 17.9083C79.7802 17.9083 80.3094 18.661 80.355 19.1542C80.355 19.1542 80.3884 19.5469 80.7111 19.7768C80.7111 19.7768 81.7091 20.4753 81.796 21.1442C81.796 21.1442 82.0097 21.788 81.5686 21.634C81.5686 21.634 80.9715 21.3574 80.7604 21.6359C80.7604 21.6359 80.6985 21.6651 80.929 21.9235C80.929 21.9235 81.5284 22.4448 81.5728 23.1444C81.5728 23.1444 81.462 23.9518 81.2497 24.2113C81.2497 24.2113 80.9802 24.5854 80.5535 24.4666C80.5535 24.4666 80.4408 24.3752 80.2354 24.4367C80.2354 24.4367 80.0247 24.4359 79.4735 24.2454C79.4735 24.2454 78.638 24.0159 78.3586 23.9173C78.3586 23.9173 77.2949 23.5371 76.7699 23.5637C76.7699 23.5637 76.4286 23.5261 75.9935 23.613C75.9935 23.613 74.663 23.764 73.7766 22.7847C73.7766 22.7847 73.102 22.2502 72.8738 22.7692C72.8738 22.7692 71.2551 24.9394 68.6354 24.3676C68.6354 24.3676 70.7206 23.5109 71.2608 22.3442C71.2608 22.3442 71.3322 21.3536 72.424 19.9779C72.424 19.9779 72.7573 19.5215 72.4354 19.4027C72.4354 19.4027 72.2494 19.2635 71.8424 19.6713C71.8424 19.6713 70.8064 20.6658 70.4314 21.576C70.4314 21.576 69.1426 23.5212 67.287 22.8674C67.287 22.8674 68.7436 22.3055 69.4284 21.2576C69.4284 21.2576 69.8517 19.8394 71.2756 18.7843C71.2756 18.7843 71.3311 17.1904 71.995 16.2947C71.995 16.2947 72.3336 14.7979 72.424 14.4481C72.424 14.4481 72.7816 13.1335 72.7793 12.7704C72.7793 12.7704 72.6609 11.0532 73.769 9.71656C73.769 9.71656 74.5108 8.28659 75.6678 7.29027C75.6678 7.29027 76.5459 6.20556 77.1988 5.54122C77.1988 5.54122 78.0587 4.53428 79.9325 3.22041C79.9325 3.22041 80.7805 2.60388 81.4016 1.94106C81.4016 1.94106 84.7066 -0.436662 87.0951 1.4706C87.0951 1.4706 88.7442 2.59174 90.1222 2.93889C90.1222 2.93889 92.9519 3.26821 94.1579 5.23163C94.1579 5.23163 94.2612 5.59434 95.4019 5.73244C95.4019 5.73244 97.9078 5.43005 99.7531 7.89314C99.7531 7.89314 100.61 8.72935 102.308 8.93271C102.308 8.93271 105.073 8.64967 106.875 10.7702C106.875 10.7702 111.422 14.7338 114.133 12.1633C114.133 12.1633 115.537 10.8343 113.931 8.42772C113.931 8.42772 112.913 7.19921 111.176 5.91569C111.176 5.91569 109.766 4.92317 110.412 3.38014C110.412 3.38014 110.754 1.88908 112.866 1.84962C112.866 1.84962 115.517 1.33781 116.589 3.05176e-05C116.589 3.05176e-05 117.787 4.21331 113.088 4.14312C113.088 4.14312 111.863 4.32409 112.291 5.29537C112.291 5.29537 112.891 6.12626 113.697 6.42865C113.697 6.42865 115.114 7.04821 115.755 9.11065C115.755 9.11065 117.186 12.7211 113.693 14.1146C112.351 14.5786 110.799 14.442 109.416 14.2015V14.2015ZM116.139 22.7092C115.95 22.551 115.672 22.4619 115.426 22.5195C114.87 22.639 115.207 23.1201 115.207 23.1201C115.432 23.5409 116.167 24.2507 116.167 24.2507C116.821 24.7398 117.337 24.1574 117.337 24.1574C117.821 23.6805 117.191 23.4498 117.191 23.4498C116.825 23.3011 116.139 22.7092 116.139 22.7092V22.7092ZM117.539 24.9659C117.539 24.9659 117.337 25.1158 117.445 25.4117C117.445 25.4117 117.963 26.8303 117.94 27.3065C117.94 27.3065 119.088 27.5113 119.246 26.9453C119.246 26.9453 119.277 26.7267 119.09 26.4099C119.09 26.4099 118.895 26.1144 118.845 25.5737C118.845 25.5737 118.862 24.2132 117.98 24.5736C117.805 24.6715 117.667 24.8138 117.539 24.9659V24.9659ZM77.091 22.087C77.2934 22.0821 77.3454 22.0081 77.3203 21.7858C77.1844 21.1677 76.6894 20.901 76.6894 20.901C75.7593 20.3455 75.6458 20.9018 75.6458 20.9018C75.4761 21.8939 76.2604 22.0187 76.2604 22.0187C76.4172 22.0726 77.091 22.087 77.091 22.087V22.087ZM74.286 17.6563C74.2686 17.1908 74.2287 16.1562 74.7028 15.7866C74.8782 15.6478 75.5684 14.8916 75.5684 14.8916C75.6735 14.7084 75.7544 14.697 75.7544 14.697C75.896 14.6833 76.0809 15.0142 76.0809 15.0142C76.5721 15.9631 77.0637 15.8473 77.0637 15.8473C77.0675 15.6743 76.9509 15.4812 76.9509 15.4812C76.7136 15.0203 76.4784 14.5581 76.2456 14.0949C76.1936 13.9691 76.1476 13.841 76.1078 13.7109C75.6329 12.9753 75.1857 13.5353 75.1857 13.5353C74.986 13.9249 73.9216 15.1944 73.9216 15.1944C73.7807 15.3595 73.6905 15.5617 73.6615 15.7768C73.4159 17.5156 74.286 17.6563 74.286 17.6563V17.6563ZM84.0931 7.15976C84.2385 6.89835 84.1785 6.63163 84.0324 6.37743C83.7028 5.87282 83.3957 6.42333 83.3957 6.42333C82.2576 8.00848 83.0977 10.3817 83.0977 10.3817C83.2139 8.19742 84.0931 7.15976 84.0931 7.15976Z" fill="#EF6C21"/>
<path d="M0.146484 40.0086V69.0864H6.01729V45.5581H8.78319C8.78319 45.5581 13.101 45.3638 13.101 49.2922C13.101 53.2205 9.26758 53.1226 9.26758 53.1226H7.86034V59.8157L13.7323 69.0872H20.6212L12.4218 57.1978C12.4218 57.1978 19.1661 56.6158 19.1661 49.2929C19.1661 41.9712 14.0713 40.0097 7.27914 40.0097L0.146484 40.0086ZM85.9806 53.6094C85.9806 53.6094 88.5513 51.6107 88.5513 47.8231C88.5513 44.0337 85.7976 40.6175 79.934 40.6175H70.114V69.0868H82.2094C82.2094 69.0868 90.8788 68.9885 90.8788 61.1588C90.8792 56.6135 89.1135 54.8728 85.9806 53.6094ZM81.2494 64.1318H75.9856V45.5816H78.7989C78.7989 45.5816 82.6224 45.2948 82.6224 48.6286C82.6224 51.9624 79.5809 51.6684 79.5809 51.6684H77.829V56.6659H81.2482C82.1445 56.6659 85 57.1003 85 60.3844C84.9996 63.6678 81.2494 64.1318 81.2494 64.1318ZM123.002 39.4368H128.485V69.0868H123.002V39.4368ZM113.565 39.4368H119.121V69.0868H113.565V39.4368ZM92.5313 51.7177H98.1587V61.6581C98.1587 61.6581 98.3546 65.0056 101.507 65.0056C104.66 65.0056 104.613 61.6581 104.613 61.6581V51.7648H110.289V61.9988C110.289 61.9988 111.018 70 101.652 70C92.2883 70 92.5313 62.9685 92.5313 61.7078V51.7177V51.7177ZM55.2189 39.4368V52.8821C55.2189 52.8821 52.5016 50.7973 49.3944 50.7973C46.2903 50.7973 41.05 52.9792 41.05 59.8646C41.05 66.7504 45.5143 69.3706 49.347 69.3706C53.1807 69.3706 55.3157 66.8483 55.3157 66.8483V69.0876H60.846V39.4372H55.2189V39.4368V39.4368ZM50.9482 64.5192C50.6567 64.5192 47.0176 64.5681 47.0176 60.1071C47.0176 55.6449 50.996 55.4996 50.996 55.4996C50.996 55.4996 55.4607 55.6449 55.4607 60.0096C55.4607 64.3742 51.239 64.5192 50.9482 64.5192ZM29.9868 50.7965C39.3998 50.7965 39.0115 59.9622 39.0115 59.9622V61.416H26.251C26.251 63.5005 27.9972 65.2954 30.3751 65.2954C32.7523 65.2954 33.9656 63.0164 33.9656 63.0164L38.4773 65.2465C36.3913 68.3997 33.5772 69.6593 30.4237 69.6593C20.622 69.6593 20.428 61.5132 20.428 60.4952C20.428 59.4761 20.5745 50.7965 29.9868 50.7965V50.7965ZM26.3474 58.0693H33.3354C33.3354 58.0693 33.0442 54.773 29.8904 54.773C26.7365 54.7727 26.3474 58.0693 26.3474 58.0693Z" fill="#EF6C21"/>
</svg>
