<svg width="388" height="70" viewBox="0 0 388 70" fill="none" xmlns="http://www.w3.org/2000/svg">
<path d="M386.889 42.2981C386.889 42.2981 386.807 42.4745 386.522 42.4745H363.788C363.421 42.4745 363.244 42.6508 363.244 42.6508C363.244 42.6508 362.973 42.7458 362.973 43.1935V67.423C362.973 67.7893 362.796 67.8707 362.796 67.8707C362.796 67.8707 362.701 68.0606 362.429 68.0606H344.356C344.098 68.0606 343.908 67.8707 343.908 67.8707C343.908 67.8707 343.813 67.7893 343.813 67.3416V43.0985C343.813 42.8408 343.595 42.6508 343.595 42.6508C343.595 42.6508 343.459 42.4745 343.228 42.4745H319.897C319.448 42.4745 319.367 42.3795 319.367 42.3795C319.367 42.3795 319.19 42.2032 319.19 41.6605V23.9293C319.19 23.7122 319.367 23.4816 319.367 23.4816C319.367 23.4816 319.448 23.4003 319.638 23.4003H343.459C343.65 23.4003 343.65 23.3053 343.65 23.3053C343.65 23.3053 343.813 23.2103 343.813 23.0339V1.80264C343.813 1.54488 343.908 1.35494 343.908 1.35494C343.908 1.35494 344.098 1.25998 344.628 1.25998H362.348C362.701 1.25998 362.796 1.35494 362.796 1.35494C362.796 1.35494 362.973 1.54488 362.973 1.8976V23.2103H386.128C386.712 23.2103 386.889 23.3053 386.889 23.3053C386.889 23.3053 387.16 23.4003 387.16 23.9293V41.8505C387.16 42.0268 386.889 42.2982 386.889 42.2982V42.2981ZM316.35 67.2602C316.268 67.7893 316.173 67.9656 316.173 67.9656C316.173 67.9656 316.078 68.1556 315.63 68.1556H278.981C277.921 68.1556 277.636 67.8707 277.636 67.8707C277.636 67.8707 277.459 67.5179 277.541 66.7175L286.632 3.64759C286.727 2.88788 286.903 2.61656 286.903 2.61656C286.903 2.61656 286.998 2.61656 287.841 2.61656H304.528C304.976 2.61656 305.112 2.69793 305.112 2.69793C305.112 2.69793 305.207 2.9828 305.112 3.33554L298.277 52.6221C298.182 53.1512 298.454 53.2054 298.454 53.2054C298.454 53.2054 298.63 53.3004 299.364 53.3004H317.478C317.872 53.3004 318.008 53.4632 318.008 53.4632C318.008 53.4632 318.103 53.5581 318.103 54.0058L316.35 67.2601V67.2602ZM269.646 68.237H253.367C253.013 68.4133 252.728 68.0606 252.728 68.0606C252.728 68.0606 252.646 67.9656 252.551 67.423L250.391 57.3703C250.214 56.8819 250.037 56.6106 250.037 56.6106C250.037 56.6106 249.589 56.3393 249.045 56.3393H227.874C227.467 56.3393 227.195 56.6106 227.195 56.6106C227.195 56.6106 226.841 56.9226 226.651 57.4653L221.841 67.7079C221.759 67.9657 221.583 68.0606 221.583 68.0606C221.583 68.0606 221.216 68.1556 221.039 68.1556H202.694C202.246 68.2369 202.11 67.9656 202.11 67.9656C202.11 67.9656 202.029 67.7893 202.246 67.423L234.573 3.06426C234.75 2.98282 234.927 2.69796 234.927 2.69796C234.927 2.69796 235.117 2.61661 235.647 2.61661H255.663C256.111 2.61661 256.37 2.88794 256.37 2.88794C256.37 2.88794 256.465 2.98289 256.56 3.24065L269.999 67.8707C269.999 68.0607 269.904 68.1556 269.904 68.1556C269.904 68.1556 269.904 68.237 269.646 68.237V68.237ZM193.345 68.1556H177.066C176.794 68.1556 176.536 68.1556 176.536 68.1556C176.536 68.1556 176.482 68.0607 176.387 67.9657L153.775 27.9314C153.599 27.755 153.517 27.755 153.517 27.755C153.517 27.755 153.327 27.755 153.327 28.0128L147.715 67.3416C147.62 67.7893 147.525 67.8707 147.525 67.8707C147.525 67.8707 147.348 67.9656 147.076 67.9656H130.892C130.634 67.9656 130.444 67.7893 130.444 67.7893C130.444 67.7893 130.09 67.423 130.226 67.0703L139.072 3.43055C139.168 3.06425 139.358 2.98285 139.358 2.98285C139.358 2.98285 139.616 2.69796 139.888 2.69796H157.961C158.232 2.69796 158.409 2.88789 158.409 2.88789C158.409 2.88789 158.586 2.98286 158.681 3.24062L179.05 38.9337C179.404 39.6391 179.675 39.5577 179.675 39.5577C179.675 39.5577 179.947 39.5577 180.124 38.7437L185.26 3.24062C185.26 2.98286 185.423 2.88789 185.423 2.88789C185.423 2.88789 185.518 2.69796 185.79 2.69796L202.776 2.88789C203.143 2.88789 203.238 2.98285 203.238 2.98285C203.238 2.98285 203.32 3.0643 203.32 3.24062L194.147 67.423C194.052 67.7893 193.889 68.0606 193.889 68.0606C193.889 68.0606 193.794 68.1556 193.345 68.1556V68.1556ZM122.168 67.9657L106.351 68.0607C105.984 68.0607 105.726 67.8707 105.726 67.8707C105.726 67.8707 105.631 67.7894 105.536 67.1653L103.062 56.9227C103.062 56.7056 102.899 56.6107 102.899 56.6107C102.899 56.6107 102.804 56.6107 102.614 56.6107H80.2743C79.8259 56.6107 79.5541 56.9227 79.5541 56.9227C79.5541 56.9227 79.2008 57.194 78.929 57.8181L74.4719 67.3416C74.2953 67.7079 74.2002 67.7893 74.2002 67.7893C74.2002 67.7893 73.942 67.9657 73.711 67.9657H55.2848C54.7412 68.0607 54.6461 67.7893 54.6461 67.7893C54.6461 67.7893 54.551 67.518 54.7412 67.1653L86.7017 3.06431C86.8376 2.69802 87.1094 2.61661 87.1094 2.61661C87.1094 2.61661 87.2861 2.61661 87.7345 2.61661H108.104C108.471 2.61661 108.729 2.88794 108.729 2.88794C108.729 2.88794 108.824 2.98289 108.919 3.24065L122.617 67.518C122.617 67.7893 122.453 67.8707 122.453 67.8707C122.453 67.8707 122.358 67.9657 122.168 67.9657V67.9657ZM242.849 21.1618C242.849 21.1618 242.754 21.1618 242.659 21.5145L233.772 41.5792C233.581 42.2032 233.677 42.2982 233.677 42.2982C233.677 42.2982 233.935 42.4745 234.125 42.4745L247.292 42.3796C247.388 42.3796 247.469 42.3796 247.469 42.3796C247.469 42.3796 247.564 42.2981 247.469 42.0268L243.026 21.4196C242.944 21.1618 242.849 21.1618 242.849 21.1618ZM95.1539 21.4196C95.1539 21.4196 95.0723 21.4196 94.9772 21.6095L86.0766 41.7555C85.9 42.0268 85.9816 42.2032 85.9816 42.2032C85.9816 42.2032 86.0767 42.2982 86.5251 42.2982L99.5974 42.3796C99.6925 42.3796 99.7333 42.2982 99.7333 42.2982C99.7333 42.2982 99.8284 42.2032 99.7333 41.9319L95.2354 21.6095C95.2354 21.4196 95.1539 21.4196 95.1539 21.4196H95.1539ZM49.5775 65.7272C49.4824 66.4327 49.1291 66.9753 49.1291 66.9753C49.1291 66.9753 48.7487 67.3416 48.1779 67.518C39.5899 70.9774 30.0914 69.8107 30.0914 69.8107C14.6819 68.1556 4.92524 58.7135 1.77268 46.558C-2.86106 28.3384 6.32487 15.4097 8.567 12.6286C13.9617 6.15742 22.4138 1.54486 30.7301 0.459542C41.3021 -1.01919 49.1291 1.44989 52.3632 2.5352C52.3632 2.5352 55.9099 3.64765 58.5597 5.45198C59.9049 6.34736 60.0952 6.70008 60.0952 6.70008C60.0952 6.70008 60.1767 6.89002 59.8098 8.27379L57.3095 21.3246C57.2144 21.8673 56.8883 22.1386 56.8883 22.1386C56.8883 22.1386 56.7116 22.2335 55.4479 21.4196C47.4577 15.7624 38.1087 16.4407 38.1087 16.4407C31.0019 16.8884 22.6856 20.6191 20.2125 30.0342C18.0111 38.3911 20.3076 45.3913 25.281 49.5562C28.6646 52.5272 33.9234 54.0059 39.454 53.7482C45.4738 53.3005 50.2842 50.9128 49.9308 51.0892C49.9308 51.0892 50.189 50.9942 50.4744 50.9128C51.7246 50.2888 51.9963 50.3701 51.9963 50.3701C51.9963 50.3701 52.2681 50.6415 52.0779 51.4554L49.5775 65.7272" fill="#EF6C21"/>
</svg>
