<svg width="201" height="70" viewBox="0 0 201 70" fill="none" xmlns="http://www.w3.org/2000/svg">
<path d="M200.137 3.05176e-05L53.8366 62.3C41.7032 67.4334 31.5143 70 23.2699 70C13.9365 70 7.16988 66.7334 2.96988 60.2C0.325434 56 -0.452344 50.6723 0.636545 44.2167C1.72543 37.7611 4.60321 30.8778 9.26988 23.5667C13.1588 17.6556 19.5365 9.87781 28.4032 0.233364C25.2921 5.21114 23.1143 10.3445 21.8699 15.6334C19.5365 25.5889 21.6365 32.9 28.1699 37.5667C31.281 39.7445 35.5588 40.8334 41.0032 40.8334C45.3588 40.8334 50.2588 40.1334 55.7032 38.7334L200.137 3.05176e-05Z" fill="#EF6C21"/>
</svg>
