<svg width="71" height="70" viewBox="0 0 71 70" fill="none" xmlns="http://www.w3.org/2000/svg">
<path d="M35.1465 3.05176e-05C54.4636 3.05176e-05 70.1465 15.6829 70.1465 35C70.1465 54.3171 54.4636 70 35.1465 70C15.8294 70 0.146484 54.3171 0.146484 35C0.146484 15.6829 15.8294 3.05176e-05 35.1465 3.05176e-05ZM9.61107 51.1554C12.3355 55.4632 16.1056 59.0115 20.5704 61.4701C25.0352 63.9287 30.0495 65.2175 35.1465 65.2167C45.8827 65.2167 55.3211 59.605 60.6819 51.1554L35.1465 41.4254L9.61107 51.1554ZM40.7115 31.7859L61.9069 49.0379C64.1839 44.7095 65.3703 39.8908 65.3632 35C65.3632 18.7338 52.4802 5.45128 36.3715 4.8067L40.7115 31.7859ZM33.9215 4.8067C17.8127 5.45128 4.92982 18.7338 4.92982 35C4.92982 40.0663 6.17815 44.8409 8.38607 49.0379L29.5815 31.7859L33.9215 4.8067Z" fill="#EF6C21"/>
</svg>
