<svg width="176" height="70" viewBox="0 0 176 70" fill="none" xmlns="http://www.w3.org/2000/svg">
<path d="M34.1373 65.1266V70H0.0234375V65.1266H34.1373ZM87.4497 65.1264C84.0276 68.2724 79.5453 70.0126 74.8968 69.9998L39.0108 69.9516V65.1264H87.4497ZM138.173 65.1263L136.472 69.9998L134.785 65.1263H138.173ZM121.859 65.1266V70H97.4919V65.1266H121.859ZM175.466 65.1266V70H151.099V65.1266H175.466ZM92.9694 55.8228C92.5513 57.5323 91.8911 59.1733 91.0089 60.6962H39.0108V55.8228H92.9694ZM141.439 55.8229L139.729 60.6964H133.23L131.519 55.8229H141.439ZM121.859 55.8228V60.6962H97.4919V55.8228H121.859ZM175.466 55.8228V60.6962H151.099V55.8228H175.466ZM34.1373 55.8228V60.6962H0.0234375V55.8228H34.1373ZM24.3905 46.519V51.3924H9.77023V46.519H24.3905ZM63.3779 46.519V51.3924H48.7576V46.519H63.3779ZM92.8526 46.519C93.2844 48.1075 93.5037 49.7463 93.5045 51.3924H77.1121V46.519H92.8526ZM144.706 46.519L142.995 51.3924H129.964L128.253 46.519H144.706ZM121.859 46.519V51.3924H107.239V46.519H121.859ZM165.72 46.519V51.3924H151.099V46.519H165.72ZM24.3905 37.2152V42.0886H9.77023V37.2152H24.3905ZM121.859 37.2152V42.0886H107.239V37.2152H121.859ZM165.72 37.2152V42.0886H151.099V37.2152H165.72ZM86.9383 37.215C88.5613 38.5957 89.9362 40.2439 91.0034 42.0884H48.7575V37.215H86.9383ZM147.972 37.215L146.261 42.0885H126.697L124.987 37.215H147.972ZM135.109 27.9116L136.479 31.8508L137.849 27.9116H165.72V32.785H151.1V28.3069L149.527 32.785H123.431L121.859 28.3063V32.785H107.239V27.9116H135.109ZM48.7576 27.9114L91.0038 27.9116C89.9365 29.7561 88.5615 31.4043 86.9384 32.785H48.7576V27.9114ZM24.3905 27.9114V32.7848H9.77023V27.9114H24.3905ZM24.3905 18.6076V23.481H9.77023V18.6076H24.3905ZM63.3779 18.6076V23.481H48.7576V18.6076H63.3779ZM93.5045 18.6077C93.5036 20.2538 93.2844 21.8926 92.8526 23.4811H77.1121V18.6077H93.5045ZM131.874 18.6076L133.568 23.4811H107.239V18.6076H131.874ZM165.72 18.6076V23.4811H139.39L141.085 18.6076H165.72ZM34.1373 9.30381V14.1772H0.0234375V9.30381H34.1373ZM91.0089 9.30381C91.891 10.8266 92.5512 12.4676 92.9694 14.1771H39.0108V9.30381H91.0089ZM175.466 9.30364V14.1771H142.625L144.32 9.30364H175.466ZM128.639 9.30364L130.333 14.1771H97.4919V9.30364H128.639ZM34.1373 6.42944e-05V4.87349H0.0234375V6.42944e-05H34.1373ZM74.8968 4.73604e-05C79.544 -0.00621327 84.024 1.73308 87.4496 4.87343H39.0108V4.73604e-05H74.8968ZM175.466 0.000228772V4.87371H145.86L147.555 0.000228772H175.466ZM125.403 0.000228772L127.098 4.87371H97.4919V0.000228772H125.403Z" fill="#EF6C21"/>
</svg>
