<svg width="91" height="70" viewBox="0 0 91 70" fill="none" xmlns="http://www.w3.org/2000/svg">
<path d="M16.8805 69.8452V65.1991C16.8805 63.4182 15.7965 62.2567 13.9381 62.2567C13.0089 62.2567 12.0022 62.5664 11.3053 63.573C10.7633 62.7213 9.98896 62.2567 8.82745 62.2567C8.05311 62.2567 7.27878 62.489 6.65931 63.3407V62.4115H5.0332V69.8452H6.65931V65.7412C6.65931 64.4248 7.35621 63.8053 8.44028 63.8053C9.52435 63.8053 10.0664 64.5022 10.0664 65.7412V69.8452H11.6925V65.7412C11.6925 64.4248 12.4668 63.8053 13.4735 63.8053C14.5575 63.8053 15.0996 64.5022 15.0996 65.7412V69.8452H16.8805ZM40.9624 62.4115H38.3297V60.166H36.7036V62.4115H35.2323V63.8828H36.7036V67.2899C36.7036 68.9934 37.4005 70 39.2589 70C39.9558 70 40.7301 69.7677 41.2721 69.458L40.8075 68.0642C40.3429 68.3739 39.8009 68.4514 39.4137 68.4514C38.6394 68.4514 38.3297 67.9868 38.3297 67.2124V63.8828H40.9624V62.4115ZM54.7456 62.2567C53.8164 62.2567 53.1969 62.7213 52.8098 63.3407V62.4115H51.1836V69.8452H52.8098V65.6637C52.8098 64.4248 53.3518 63.7279 54.3584 63.7279C54.6682 63.7279 55.0553 63.8053 55.3651 63.8828L55.8297 62.3341C55.5199 62.2567 55.0553 62.2567 54.7456 62.2567ZM33.9159 63.031C33.1416 62.489 32.0575 62.2567 30.896 62.2567C29.0376 62.2567 27.7987 63.1859 27.7987 64.6571C27.7987 65.896 28.7279 66.5929 30.354 66.8252L31.1283 66.9027C31.9801 67.0575 32.4447 67.2899 32.4447 67.677C32.4447 68.2191 31.8252 68.6062 30.7412 68.6062C29.6571 68.6062 28.8053 68.2191 28.2633 67.8319L27.489 69.0708C28.3407 69.6903 29.5022 70 30.6637 70C32.8319 70 34.0708 68.9934 34.0708 67.5996C34.0708 66.2832 33.0642 65.5863 31.5155 65.354L30.7412 65.2766C30.0443 65.1991 29.5022 65.0443 29.5022 64.5797C29.5022 64.0376 30.0443 63.7279 30.896 63.7279C31.8252 63.7279 32.7544 64.1151 33.219 64.3474L33.9159 63.031ZM77.1239 62.2567C76.1947 62.2567 75.5752 62.7213 75.1881 63.3407V62.4115H73.562V69.8452H75.1881V65.6637C75.1881 64.4248 75.7301 63.7279 76.7367 63.7279C77.0465 63.7279 77.4336 63.8053 77.7434 63.8828L78.208 62.3341C77.8982 62.2567 77.4336 62.2567 77.1239 62.2567ZM56.3717 66.1283C56.3717 68.3739 57.9204 70 60.3208 70C61.4049 70 62.1792 69.7677 62.9536 69.1483L62.1792 67.8319C61.5597 68.2965 60.9403 68.5288 60.2434 68.5288C58.927 68.5288 57.9978 67.5996 57.9978 66.1283C57.9978 64.7345 58.927 63.8053 60.2434 63.7279C60.9403 63.7279 61.5597 63.9602 62.1792 64.4248L62.9536 63.1084C62.1792 62.489 61.4049 62.2567 60.3208 62.2567C57.9204 62.2567 56.3717 63.8828 56.3717 66.1283ZM71.3938 66.1283V62.4115H69.7677V63.3407C69.2257 62.6438 68.4513 62.2567 67.4447 62.2567C65.354 62.2567 63.7279 63.8828 63.7279 66.1283C63.7279 68.3739 65.354 70 67.4447 70C68.5288 70 69.3031 69.6129 69.7677 68.916V69.8452H71.3938V66.1283ZM65.4314 66.1283C65.4314 64.812 66.2832 63.7279 67.677 63.7279C68.9934 63.7279 69.9226 64.7345 69.9226 66.1283C69.9226 67.4447 68.9934 68.5288 67.677 68.5288C66.2832 68.4514 65.4314 67.4447 65.4314 66.1283ZM45.9956 62.2567C43.8275 62.2567 42.2788 63.8053 42.2788 66.1283C42.2788 68.4514 43.8274 70 46.073 70C47.1571 70 48.2412 69.6903 49.0929 68.9934L48.3186 67.8319C47.6991 68.2965 46.9248 68.6062 46.1505 68.6062C45.1438 68.6062 44.1372 68.1416 43.9049 66.8252H49.4027V66.2058C49.4801 63.8053 48.0863 62.2567 45.9956 62.2567ZM45.9956 63.6505C47.0022 63.6505 47.6991 64.2699 47.854 65.4314H43.9823C44.1372 64.4248 44.8341 63.6505 45.9956 63.6505ZM86.3385 66.1283V59.4691H84.7124V63.3407C84.1704 62.6438 83.396 62.2567 82.3894 62.2567C80.2987 62.2567 78.6726 63.8828 78.6726 66.1283C78.6726 68.3739 80.2987 70 82.3894 70C83.4735 70 84.2478 69.6129 84.7124 68.916V69.8452H86.3385V66.1283ZM80.3761 66.1283C80.3761 64.812 81.2279 63.7279 82.6217 63.7279C83.9381 63.7279 84.8673 64.7345 84.8673 66.1283C84.8673 67.4447 83.9381 68.5288 82.6217 68.5288C81.2279 68.4514 80.3761 67.4447 80.3761 66.1283ZM26.0177 66.1283V62.4115H24.3916V63.3407C23.8496 62.6438 23.0752 62.2567 22.0686 62.2567C19.9779 62.2567 18.3518 63.8828 18.3518 66.1283C18.3518 68.3739 19.9779 70 22.0686 70C23.1527 70 23.927 69.6129 24.3916 68.916V69.8452H26.0177V66.1283ZM19.9779 66.1283C19.9779 64.812 20.8297 63.7279 22.2235 63.7279C23.5398 63.7279 24.469 64.7345 24.469 66.1283C24.469 67.4447 23.5398 68.5288 22.2235 68.5288C20.8297 68.4514 19.9779 67.4447 19.9779 66.1283Z" fill="#EF6C21"/>
<path d="M57.7666 5.96243H33.375V49.7899H57.7666V5.96243Z" fill="#EF6C21"/>
<path d="M34.9228 27.8761C34.9228 18.9712 39.1042 11.073 45.5312 5.96239C40.8078 2.24558 34.8454 0 28.341 0C12.9317 0 0.464844 12.4668 0.464844 27.8761C0.464844 43.2854 12.9317 55.7522 28.341 55.7522C34.8454 55.7522 40.8078 53.5066 45.5312 49.7898C39.1042 44.7566 34.9228 36.781 34.9228 27.8761Z" fill="#EF6C21"/>
<path d="M90.6757 27.8761C90.6757 43.2854 78.2089 55.7522 62.7996 55.7522C56.2952 55.7522 50.3328 53.5067 45.6094 49.7899C52.1138 44.6792 56.2178 36.781 56.2178 27.8761C56.2178 18.9713 52.0364 11.073 45.6094 5.96242C50.3328 2.24561 56.2952 3.05176e-05 62.7996 3.05176e-05C78.2089 3.05176e-05 90.6757 12.5443 90.6757 27.8761Z" fill="#EF6C21"/>
</svg>
