<svg width="540" height="70" viewBox="0 0 540 70" fill="none" xmlns="http://www.w3.org/2000/svg">
<path d="M233.137 45.5415H268.718L249.904 15.2727L215.374 70H199.659L241.659 4.26088C243.485 1.60474 246.528 3.05176e-05 249.904 3.05176e-05C253.168 3.05176e-05 256.212 1.54943 257.983 4.15021L300.149 70H284.433L277.018 57.7708H240.994L233.137 45.5415ZM396.378 57.7708V0.664063H383.042V63.3597C383.042 65.0752 383.706 66.7352 384.979 68.0079C386.251 69.2807 387.967 70 389.848 70H450.663L458.52 57.7708H396.378ZM175.753 47.5336C188.702 47.5336 199.216 37.0751 199.216 24.1265C199.216 11.1779 188.702 0.664063 175.753 0.664063H117.413V70H130.743V12.8933H174.868C181.066 12.8933 186.046 17.9289 186.046 24.1265C186.046 30.3241 181.066 35.3597 174.868 35.3597L137.273 35.3044L177.081 70H196.449L169.667 47.5336H175.753ZM35.3496 70C16.2087 70 0.675781 54.506 0.675781 35.3597C0.675781 16.2134 16.2087 0.664063 35.3496 0.664063H75.6505C94.7968 0.664063 110.319 16.2134 110.319 35.3597C110.319 54.506 94.7968 70 75.6505 70H35.3496ZM74.7541 57.7708C87.1551 57.7708 97.1986 47.755 97.1986 35.3597C97.1986 22.9644 87.1551 12.8933 74.7541 12.8933H36.2403C23.8451 12.8933 13.7958 22.9644 13.7958 35.3597C13.7958 47.755 23.8451 57.7708 36.2403 57.7708H74.7541ZM327.983 70C308.836 70 293.287 54.506 293.287 35.3597C293.287 16.2134 308.836 0.664063 327.983 0.664063H375.848L368.046 12.8933H328.868C316.473 12.8933 306.402 22.9644 306.402 35.3597C306.402 47.755 316.473 57.7708 328.868 57.7708H376.955L369.097 70H327.983ZM491.058 57.7708C480.821 57.7708 472.133 50.9091 469.477 41.4467H526.473L534.331 29.2174H469.477C472.133 19.8103 480.821 12.8933 491.058 12.8933H530.18L538.093 0.664063H490.173C471.026 0.664063 455.477 16.2134 455.477 35.3597C455.477 54.506 471.026 70 490.173 70H531.287L539.145 57.7708H491.058Z" fill="#EF6C21"/>
</svg>
