<svg width="237" height="70" viewBox="0 0 237 70" fill="none" xmlns="http://www.w3.org/2000/svg">
<path d="M64.6338 44.467C60.7986 44.467 57.2053 42.8431 53.9403 40.1999L54.735 36.4684L54.7695 36.3302C55.4778 32.3569 57.7236 25.6886 64.6338 25.6886C69.8164 25.6886 74.0316 29.9038 74.0316 35.0864C74.0143 40.2518 69.7991 44.467 64.6338 44.467ZM64.6338 16.1698C55.806 16.1698 48.965 21.9053 46.1836 31.3376C41.9339 24.963 38.7207 17.31 36.8376 10.8663H27.3361V35.5874C27.3361 40.4591 23.3628 44.4324 18.4911 44.4324C13.6195 44.4324 9.64612 40.4591 9.64612 35.5874V10.8663H0.14464V35.5874C0.110089 45.7108 8.35046 54.0203 18.4739 54.0203C28.5973 54.0203 36.8376 45.7108 36.8376 35.5874V31.4413C38.6861 35.2937 40.9492 39.1807 43.696 42.6358L37.8742 70H47.6002L51.8154 50.1506C55.5124 52.5173 59.7621 54.003 64.6338 54.003C75.0509 54.003 83.5331 45.4689 83.5331 35.0519C83.5331 24.6521 75.0509 16.1698 64.6338 16.1698Z" fill="#EF6C21"/>
<path d="M112.539 17.2409L118.672 41.962L125.426 17.2409H133.477L123.094 52.9665H115.044L108.669 28.0899L102.312 52.9492H94.2614L83.8789 17.2236H91.9292L98.6839 41.9447L104.817 17.2236H112.539V17.2409ZM152.739 16.1698C142.287 16.1698 133.822 24.6521 133.822 35.0864C133.822 45.538 142.304 54.003 152.739 54.003C163.19 54.003 171.673 45.538 171.673 35.0864C171.673 24.6348 163.19 16.1698 152.739 16.1698ZM152.739 46.2291C146.589 46.2291 141.613 41.2537 141.613 35.1037C141.613 28.9536 146.606 23.9783 152.739 23.9783C158.889 23.9783 163.864 28.9536 163.864 35.1037C163.864 41.2365 158.889 46.2291 152.739 46.2291ZM194.666 25.2394C189.259 25.2394 184.888 29.6274 184.888 35.0173V52.9492H176.786V17.2409H184.888V22.7345C184.888 22.7345 188.343 17.2236 195.444 17.2236H197.931V25.2394H194.666ZM221.858 33.7044C227.61 30.4566 231.515 24.2893 231.515 17.2236H223.412C223.412 23.1836 218.575 28.0208 212.615 28.0208H211.527V3.05176e-05H203.425V52.9492H211.527V36.1229H212.494C213.289 36.1229 214.326 36.6412 214.792 37.2804L226.297 52.9492H236.006L221.858 33.7044Z" fill="#EF6C21"/>
</svg>
