<svg width="362" height="70" viewBox="0 0 362 70" fill="none" xmlns="http://www.w3.org/2000/svg">
<path d="M57.9509 3.05176e-05C64.4944 1.13338 70.7533 3.12378 76.6069 5.86251C86.8418 21.1468 91.9271 38.3853 90.0494 58.268C82.2186 64.1232 74.6226 67.6754 67.1544 70C65.3052 67.4648 63.6694 64.7624 62.254 61.9294C64.9496 60.905 67.5385 59.641 69.9852 58.1664C69.345 57.6869 68.7121 57.1856 68.0933 56.6698C53.3918 63.6292 37.2252 63.6292 22.346 56.6698C21.7344 57.1856 21.1013 57.6869 20.4541 58.1664C22.8936 59.6338 25.4754 60.8978 28.171 61.922C26.7557 64.7624 25.1127 67.4575 23.2706 69.9928C15.8097 67.6683 8.22068 64.1159 0.389864 58.268C-1.21044 41.1168 1.99016 23.7185 13.7968 5.87702C19.6504 3.13109 25.9165 1.13338 32.4671 3.05176e-05C33.2779 1.45295 34.2381 3.40715 34.8852 4.96171C41.7132 3.91563 48.6052 3.91563 55.5611 4.96171C56.2084 3.40715 57.1473 1.45295 57.9509 3.05176e-05ZM237.385 22.3904C242.363 22.3904 246.496 23.4583 249.782 25.594V34.8997C248.623 34.0861 247.27 33.425 245.727 32.9165C244.184 32.4081 242.534 32.1537 240.77 32.1537C237.684 32.1537 235.273 32.7276 233.53 33.8827C231.787 35.0377 230.913 36.5415 230.913 38.4084C230.913 40.239 231.758 41.7356 233.452 42.9124C235.145 44.082 237.598 44.6704 240.82 44.6704C242.477 44.6704 244.113 44.4233 245.727 43.9367C247.335 43.4427 248.722 42.8398 249.881 42.1278V51.1284C246.233 53.3658 242.001 54.4845 237.185 54.4845C233.132 54.47 229.675 53.7581 226.822 52.3344C223.971 50.9105 221.816 48.9782 220.379 46.5373C218.942 44.0965 218.217 41.3505 218.217 38.2994C218.217 35.2484 218.963 32.517 220.457 30.1125C221.951 27.7079 224.141 25.8192 227.029 24.4462C229.916 23.0733 233.366 22.3904 237.385 22.3904ZM199.993 22.3834C202.781 22.3834 205.334 22.6885 207.661 23.2987C209.986 23.909 211.906 24.6862 213.436 25.6378V33.6215C211.87 32.6699 210.078 31.9216 208.03 31.3549C205.989 30.7956 203.891 30.5196 201.728 30.5196C198.606 30.5196 197.049 31.0644 197.049 32.1468C197.049 32.6554 197.29 33.0331 197.774 33.2873C198.257 33.5415 199.146 33.8031 200.434 34.0791L205.412 34.9945C208.664 35.5684 211.088 36.5781 212.681 38.0164C214.275 39.4548 215.071 41.5833 215.071 44.4019C215.071 47.4892 213.756 49.9374 211.117 51.7535C208.478 53.5696 204.737 54.4776 199.886 54.4776C197.034 54.4704 194.261 54.1144 191.572 53.4025C188.884 52.6906 186.458 51.659 184.303 50.3006V41.8594C185.932 43.1451 188.115 44.2058 190.853 45.0411C193.592 45.8693 196.238 46.2833 198.798 46.2833C199.993 46.2833 200.896 46.1236 201.508 45.8039C202.12 45.4843 202.426 45.0993 202.426 44.6561C202.426 44.1477 202.262 43.7263 201.928 43.3848C201.593 43.0434 200.946 42.7601 199.987 42.5203L194.012 41.1474C190.591 40.3338 188.165 39.2078 186.722 37.7622C185.278 36.3238 184.559 34.435 184.559 32.0959C184.559 30.1272 185.185 28.4202 186.452 26.96C187.71 25.4999 189.502 24.3738 191.828 23.582C194.154 22.7829 196.87 22.3834 199.993 22.3834ZM361.796 16.8406V53.4533H349.597V46.7919C348.565 49.2981 347.001 51.2087 344.896 52.5162C342.79 53.8167 340.187 54.4704 337.101 54.4704C334.341 54.4704 331.938 53.7875 329.881 52.4146C327.826 51.0416 326.241 49.1602 325.124 46.7701C324.014 44.3801 323.452 41.6778 323.452 38.6558C323.417 35.5394 324.007 32.7425 325.223 30.2653C326.433 27.7881 328.146 25.8559 330.351 24.4683C332.556 23.0808 335.074 22.3834 337.898 22.3834C343.609 22.3834 347.471 24.8741 349.492 29.8486L349.596 30.112L349.597 16.8406H361.796ZM272.384 22.3761C276.332 22.3761 279.739 23.0517 282.591 24.4101C285.443 25.7686 287.62 27.6284 289.114 30.0038C290.608 32.3793 291.354 35.1034 291.354 38.1908C291.354 41.2418 290.608 44.0024 289.114 46.4794C287.62 48.9566 285.436 50.9035 282.563 52.3273C279.689 53.7512 276.297 54.4631 272.378 54.4631C268.459 54.4631 265.066 53.7584 262.2 52.3346C259.327 50.9108 257.136 48.9639 255.628 46.4868C254.12 44.0096 253.359 41.2491 253.359 38.198C253.359 35.147 254.113 32.4228 255.628 30.0329C257.142 27.6429 259.319 25.7686 262.179 24.4101C265.03 23.0517 268.438 22.3761 272.384 22.3761ZM178.857 30.7155V53.613H166.695V30.7155C170.421 32.3572 175.045 32.4299 178.857 30.7155ZM316.738 23.0444C318.494 23.0444 320.003 23.4512 321.269 24.2647V35.2486C320.003 34.3986 318.367 33.9772 316.34 33.9772C313.686 33.9772 311.638 34.7982 310.215 36.4399C308.786 38.0818 308.074 40.6388 308.074 44.0966V53.4532H295.877V23.7054H307.827V33.1637C308.487 29.7058 309.562 27.1561 311.041 25.5069C312.513 23.8652 314.419 23.0444 316.738 23.0444ZM140.938 17.8576C145.618 17.8576 149.573 18.6058 152.817 20.095C156.052 21.5841 158.478 23.6618 160.086 26.3206C161.692 28.9794 162.503 32.0232 162.503 35.452C162.503 38.8082 161.664 41.8519 159.985 44.5761C158.307 47.3075 155.753 49.4651 152.318 51.056C148.884 52.6469 144.629 53.4459 139.544 53.4459H121.521V17.8576H140.938ZM30.1981 29.2176C25.6533 29.2176 22.0686 33.3946 22.0686 38.4725C22.0686 43.5503 25.7315 47.7201 30.1981 47.7201C34.7431 47.7201 38.3348 43.5503 38.3277 38.4725C38.4059 33.3873 34.7431 29.2176 30.1981 29.2176ZM60.2412 29.2176C55.6962 29.2176 52.1116 33.3946 52.1116 38.4725C52.1116 43.5503 55.7746 47.7201 60.2412 47.7201C64.786 47.7201 68.3707 43.5503 68.3707 38.4725C68.4489 33.3873 64.786 29.2176 60.2412 29.2176ZM272.378 31.7472C270.251 31.7472 268.586 32.3502 267.37 33.556C266.162 34.762 265.557 36.3747 265.557 38.4088C265.557 40.4428 266.162 42.0773 267.37 43.3122C268.58 44.5472 270.251 45.1719 272.378 45.1719C274.468 45.1646 276.119 44.5472 277.328 43.3122C278.538 42.0773 279.149 40.4428 279.149 38.4088C279.149 36.3747 278.544 34.7547 277.328 33.556C276.119 32.3502 274.468 31.7472 272.378 31.7472ZM342.876 31.8998C340.821 31.8998 339.178 32.5028 337.947 33.7086C336.716 34.9146 336.105 36.4764 336.105 38.4088C336.105 40.3411 336.716 41.9175 337.947 43.1379C339.178 44.3583 340.799 44.9685 342.826 44.9685C344.881 44.9613 346.531 44.3438 347.777 43.1089C349.022 41.8739 349.64 40.2685 349.64 38.3071C349.64 36.411 349.035 34.8637 347.827 33.6796C346.617 32.4956 344.96 31.8998 342.876 31.8998ZM140.049 26.909H133.975V44.4018H139.345C142.496 44.4018 144.922 43.5954 146.614 41.9899C148.307 40.3772 149.154 38.1834 149.154 35.4012C149.154 32.8222 148.399 30.7664 146.891 29.2263C145.384 27.6862 143.101 26.909 140.049 26.909ZM172.781 15.7143C176.139 15.7143 178.863 18.2121 178.863 21.2933C178.863 24.3746 176.139 26.8725 172.781 26.8725C169.422 26.8725 166.7 24.3746 166.7 21.2933C166.7 18.2121 169.422 15.7143 172.781 15.7143Z" fill="#EF6C21"/>
</svg>
