<svg width="262" height="70" viewBox="0 0 262 70" fill="none" xmlns="http://www.w3.org/2000/svg">
<path d="M174.144 3.05176e-05V50.9894C180.433 51.282 186.706 51.6357 192.961 52.053V62.8634C183.073 62.2042 173.143 61.7011 163.172 61.358V3.05176e-05H174.144ZM261.333 0.00607124L247.046 33.1299L261.33 69.9906L261.314 69.9976C257.153 69.4039 252.987 68.8435 248.808 68.3063L240.787 47.618L232.689 66.3859C228.852 65.9621 225.009 65.5612 221.158 65.1855L235.086 32.9085L222.33 0.00607124H234.199L241.341 18.4186L249.283 0.00607124H261.333ZM125.515 60.8222L125.515 0.00587577H156.143V10.9134H136.487V25.0501H151.359V35.8604H136.487V60.8197L125.515 60.8222ZM84.5452 10.9143L84.5448 0.00530717H118.481V10.9135H106.999V61.1181C103.336 61.214 99.6781 61.3276 96.0273 61.4653V10.9143H84.5452ZM47.0361 64.6081V0.00713715H77.5117V10.9147H58.0065V25.6898C62.4876 25.6324 68.859 25.5674 72.8229 25.577V36.3883C67.8611 36.3266 62.2602 36.4563 58.0065 36.4988V52.8654C64.4893 52.3555 70.9916 51.9094 77.5117 51.5328V62.3442C67.3069 62.932 57.1481 63.6893 47.0361 64.6081ZM25.5127 39.6168L25.512 0.00536062H36.4842V65.6271C32.4732 66.0398 28.4699 66.4788 24.4734 66.9423L11.7684 30.4423V68.5057C8.10398 68.9829 4.44705 69.4805 0.796875 70V0.00607124H11.224L25.5127 39.6168ZM202.013 63.5155V63.5156V0.00614199H212.985V64.4216C209.333 64.0965 205.676 63.7958 202.013 63.5155Z" fill="#EF6C21"/>
</svg>
