<svg width="259" height="70" viewBox="0 0 259 70" fill="none" xmlns="http://www.w3.org/2000/svg">
<path d="M50.1224 29.9221H28.3991C27.8387 29.9221 27.3839 30.3775 27.3839 30.9378V41.5588C27.3839 42.1192 27.8387 42.5751 28.3991 42.5751H36.8734V55.7708C36.8734 55.7708 34.9706 56.4195 29.7098 56.4195C23.5033 56.4195 14.8331 54.1516 14.8331 35.0864C14.8331 16.0169 23.8613 13.5079 32.3372 13.5079C39.6742 13.5079 42.835 14.7998 44.8461 15.4221C45.478 15.6159 46.0626 14.9866 46.0626 14.4257L48.486 4.16372C48.486 3.90157 48.3972 3.58559 48.0979 3.37081C47.2813 2.78838 42.2983 3.05176e-05 29.7098 3.05176e-05C15.2077 3.05176e-05 0.332031 6.16993 0.332031 35.8298C0.332031 65.4908 17.3636 69.9107 31.7155 69.9107C43.5988 69.9107 50.8076 64.8324 50.8076 64.8324C51.1048 64.6683 51.1371 64.2532 51.1371 64.0627V30.9378C51.1371 30.3775 50.6828 29.9221 50.1224 29.9221ZM162.016 3.71263C162.016 3.14742 161.568 2.69149 161.008 2.69149H148.776C148.217 2.69149 147.763 3.14742 147.763 3.71263C147.763 3.71532 147.766 27.3506 147.766 27.3506H128.701V3.71263C128.701 3.14742 128.251 2.69149 127.691 2.69149H115.46C114.904 2.69149 114.45 3.14742 114.45 3.71263V67.7171C114.45 68.2818 114.904 68.7415 115.46 68.7415H127.691C128.251 68.7415 128.701 68.2818 128.701 67.7171V40.3402H147.766C147.766 40.3402 147.733 67.715 147.733 67.7171C147.733 68.2818 148.187 68.7415 148.746 68.7415H161.007C161.567 68.7415 162.015 68.2818 162.016 67.7171V3.71263ZM73.1645 12.2699C73.1645 7.86555 69.6333 4.30636 65.2769 4.30636C60.9248 4.30636 57.391 7.86555 57.391 12.2699C57.391 16.6693 60.9248 20.2382 65.2769 20.2382C69.6333 20.2382 73.1645 16.6693 73.1645 12.2699ZM72.194 54.2491V24.7044C72.194 24.1435 71.7413 23.6849 71.182 23.6849H58.9891C58.4299 23.6849 57.9293 24.2619 57.9293 24.8228V67.1514C57.9293 68.3954 58.7044 68.7652 59.7078 68.7652H70.6932C71.8985 68.7652 72.194 68.1736 72.194 67.1315V54.2491ZM208.765 23.6849H196.627C196.07 23.6849 195.617 24.1435 195.617 24.7082V56.0916C195.617 56.0916 192.533 58.3476 188.157 58.3476C183.78 58.3476 182.619 56.3619 182.619 52.0765V24.7082C182.619 24.1435 182.166 23.6849 181.609 23.6849H169.291C168.734 23.6849 168.279 24.1435 168.279 24.7082V54.149C168.279 66.8774 175.373 69.9914 185.132 69.9914C193.138 69.9914 199.594 65.5683 199.594 65.5683C199.594 65.5683 199.901 67.8991 200.04 68.1758C200.179 68.4514 200.542 68.7297 200.933 68.7297L208.77 68.6952C209.326 68.6952 209.781 68.2355 209.781 67.6735L209.778 24.7082C209.778 24.1435 209.324 23.6849 208.765 23.6849ZM236.73 58.3719C232.52 58.2437 229.665 56.3333 229.665 56.3333V36.0645C229.665 36.0645 232.482 34.3377 235.939 34.0287C240.309 33.6373 244.521 34.9578 244.521 45.3845C244.521 56.3796 242.62 58.5495 236.73 58.3719ZM241.518 22.3101C234.624 22.3101 229.935 25.3859 229.935 25.3859V3.71263C229.935 3.14742 229.483 2.69149 228.926 2.69149H216.66C216.102 2.69149 215.649 3.14742 215.649 3.71263V67.7171C215.649 68.2818 216.102 68.7415 216.661 68.7415H225.172C225.555 68.7415 225.845 68.5439 226.059 68.1978C226.271 67.8539 226.576 65.2469 226.576 65.2469C226.576 65.2469 231.592 70 241.087 70C252.234 70 258.626 64.3458 258.626 44.6169C258.626 24.888 248.417 22.3101 241.518 22.3101ZM107.398 23.5751H98.2225C98.2225 23.5751 98.2085 11.4565 98.2085 11.4538C98.2085 10.9952 97.9722 10.7659 97.442 10.7659H84.9386C84.4525 10.7659 84.1914 10.9796 84.1914 11.4468V23.9729C84.1914 23.9729 77.9257 25.4855 77.5021 25.6076C77.0801 25.7298 76.7695 26.119 76.7695 26.583V34.4545C76.7695 35.0208 77.2216 35.4772 77.7809 35.4772H84.1914V54.4133C84.1914 68.4783 94.0572 69.8601 100.715 69.8601C103.757 69.8601 107.396 68.8831 107.996 68.6613C108.36 68.5278 108.571 68.1515 108.571 67.7435L108.581 59.0846C108.581 58.5199 108.104 58.0629 107.567 58.0629C107.032 58.0629 105.664 58.2803 104.256 58.2803C99.7497 58.2803 98.2225 56.1848 98.2225 53.4723C98.2225 50.762 98.222 35.4772 98.222 35.4772H107.398C107.957 35.4772 108.41 35.0208 108.41 34.4545V24.5951C108.41 24.0305 107.957 23.5751 107.398 23.5751Z" fill="#EF6C21"/>
</svg>
