<svg width="71" height="70" viewBox="0 0 71 70" fill="none" xmlns="http://www.w3.org/2000/svg">
<path d="M15.397 44.2516C15.397 48.3201 12.1088 51.6083 8.04028 51.6083C3.97181 51.6083 0.683594 48.3201 0.683594 44.2516C0.683594 40.1831 3.97181 36.8949 8.04028 36.8949H15.397V44.2516ZM19.0753 44.2516C19.0753 40.1831 22.3635 36.8949 26.432 36.8949C30.5005 36.8949 33.7887 40.1831 33.7887 44.2516V62.6433C33.7887 66.7118 30.5005 70 26.432 70C22.3635 70 19.0753 66.7118 19.0753 62.6433V44.2516Z" fill="#EF6C21"/>
<path d="M26.4311 14.7134C22.3626 14.7134 19.0744 11.4252 19.0744 7.35672C19.0744 3.28825 22.3626 3.05176e-05 26.4311 3.05176e-05C30.4996 3.05176e-05 33.7878 3.28825 33.7878 7.35672V14.7134H26.4311ZM26.4311 18.4475C30.4996 18.4475 33.7878 21.7357 33.7878 25.8042C33.7878 29.8726 30.4996 33.1609 26.4311 33.1609H7.98364C3.91517 33.1609 0.626953 29.8726 0.626953 25.8042C0.626953 21.7357 3.91517 18.4475 7.98364 18.4475H26.4311Z" fill="#EF6C21"/>
<path d="M55.9132 25.8042C55.9132 21.7357 59.2014 18.4475 63.2699 18.4475C67.3384 18.4475 70.6266 21.7357 70.6266 25.8042C70.6266 29.8726 67.3384 33.1609 63.2699 33.1609H55.9132V25.8042ZM52.2349 25.8042C52.2349 29.8726 48.9466 33.1609 44.8782 33.1609C40.8097 33.1609 37.5215 29.8726 37.5215 25.8042V7.35672C37.5215 3.28825 40.8097 3.05176e-05 44.8782 3.05176e-05C48.9466 3.05176e-05 52.2349 3.28825 52.2349 7.35672V25.8042Z" fill="#EF6C21"/>
<path d="M44.8782 55.2866C48.9466 55.2866 52.2349 58.5749 52.2349 62.6433C52.2349 66.7118 48.9466 70 44.8782 70C40.8097 70 37.5215 66.7118 37.5215 62.6433V55.2866H44.8782ZM44.8782 51.6083C40.8097 51.6083 37.5215 48.3201 37.5215 44.2516C37.5215 40.1831 40.8097 36.8949 44.8782 36.8949H63.3256C67.3941 36.8949 70.6823 40.1831 70.6823 44.2516C70.6823 48.3201 67.3941 51.6083 63.3256 51.6083H44.8782Z" fill="#EF6C21"/>
</svg>
